<svg width="32" height="32" viewBox="0 0 32 32" fill="none" xmlns="http://www.w3.org/2000/svg">
<path d="M22.585 22.1713C20.7915 22.1713 19.6623 22.7194 18.6659 23.2153C17.8023 23.6459 17.0982 23.9983 15.9424 23.9983C14.7467 23.9983 14.0825 23.672 13.2189 23.2153C12.2226 22.7194 11.1332 22.1713 9.29982 22.1713C7.46646 22.1713 6.37708 22.7194 5.38069 23.2153C4.80943 23.5024 4.30459 23.7503 3.69347 23.8939C3.09564 24.0243 2.65723 24.4941 2.65723 25.0814V25.2119C2.65723 25.9948 3.4012 26.556 4.17174 26.3994C5.15484 26.2036 5.89881 25.8383 6.57635 25.499C7.43989 25.0683 8.13072 24.716 9.29982 24.716C10.4689 24.716 11.1597 25.0422 12.0233 25.499C13.0197 25.9948 14.1091 26.5429 15.9424 26.5429C17.7758 26.5429 18.8651 25.9948 19.8615 25.499C20.7251 25.0683 21.4292 24.716 22.585 24.716C23.7807 24.716 24.4449 25.0422 25.3085 25.499C25.9993 25.8383 26.7433 26.2167 27.7396 26.4124C27.9191 26.4468 28.1041 26.4421 28.2815 26.3986C28.4589 26.3551 28.6245 26.2738 28.7664 26.1605C28.9083 26.0473 29.0232 25.9048 29.1029 25.7431C29.1826 25.5814 29.2251 25.4045 29.2276 25.2249V25.1075C29.2276 24.5072 28.7759 24.0374 28.1781 23.9069C27.5669 23.7764 27.0754 23.5285 26.5041 23.2283C25.5077 22.7194 24.3785 22.1713 22.585 22.1713ZM22.585 16.3642C20.7915 16.3642 19.6623 16.9253 18.6659 17.4082C17.8023 17.8258 17.0982 18.1912 15.9424 18.1912C14.7467 18.1912 14.0825 17.8649 13.2189 17.4082C12.2226 16.9123 11.1332 16.3642 9.29982 16.3642C7.46646 16.3642 6.37708 16.9253 5.38069 17.4082C4.80943 17.6822 4.30459 17.9432 3.68019 18.0868C3.09564 18.2173 2.65723 18.687 2.65723 19.2743V19.4048C2.6573 19.5851 2.69831 19.7632 2.77726 19.9261C2.85621 20.0889 2.97112 20.2324 3.11364 20.3462C3.25615 20.4599 3.42268 20.541 3.60112 20.5836C3.77956 20.6262 3.96541 20.6291 4.14517 20.5923C5.14156 20.3965 5.88553 20.0181 6.57635 19.6919C7.43989 19.2351 8.10415 18.9089 9.29982 18.9089C10.4955 18.9089 11.1597 19.2351 12.0233 19.6919C13.0197 20.1878 14.1091 20.7358 15.9424 20.7358C17.7758 20.7358 18.8651 20.1747 19.8615 19.6919C20.7251 19.2351 21.3893 18.9089 22.585 18.9089C23.7807 18.9089 24.4449 19.2351 25.3085 19.6919C25.9993 20.0312 26.7433 20.4096 27.7396 20.6053C27.9202 20.6399 28.1063 20.6349 28.2847 20.5907C28.4631 20.5464 28.6293 20.464 28.7715 20.3493C28.9136 20.2345 29.0282 20.0904 29.1071 19.9271C29.1859 19.7639 29.2271 19.5855 29.2276 19.4048V19.2873C29.2276 18.687 28.7759 18.2173 28.1781 18.0868C27.5669 17.9563 27.0754 17.7083 26.5041 17.4082C25.5077 16.9123 24.3785 16.3642 22.585 16.3642ZM26.5041 5.82009C25.5077 5.32421 24.4051 4.77612 22.585 4.77612C20.7649 4.77612 19.6623 5.32421 18.6659 5.82009C17.8023 6.23768 17.0982 6.60307 15.9424 6.60307C14.7467 6.60307 14.0825 6.27683 13.2189 5.82009C12.2226 5.33726 11.1332 4.77612 9.29982 4.77612C7.46646 4.77612 6.37708 5.32421 5.38069 5.82009C4.80943 6.10719 4.30459 6.35513 3.69347 6.49868C3.09564 6.62917 2.65723 7.09896 2.65723 7.68619V7.77754C2.65723 8.56052 3.37463 9.1347 4.14517 8.97811C5.14156 8.78236 5.88553 8.40392 6.57635 8.07768C7.43989 7.64704 8.13072 7.2947 9.29982 7.2947C10.4689 7.2947 11.1597 7.62095 12.0233 8.07768C13.0197 8.57357 14.1091 9.12165 15.9424 9.12165C17.7758 9.12165 18.8651 8.56052 19.8615 8.07768C20.7251 7.66009 21.4292 7.2947 22.585 7.2947C23.7807 7.2947 24.4449 7.62095 25.3085 8.07768C25.9993 8.41697 26.7433 8.79541 27.7396 8.99116C27.9202 9.02576 28.1063 9.02075 28.2847 8.97648C28.4631 8.93221 28.6293 8.84978 28.7715 8.73507C28.9136 8.62036 29.0282 8.47622 29.1071 8.31295C29.1859 8.14967 29.2271 7.9713 29.2276 7.79059V7.67314C29.2276 7.07286 28.7759 6.60307 28.1781 6.47258C27.5669 6.34208 27.0754 6.10719 26.5041 5.82009ZM22.585 10.5571C20.7915 10.5571 19.6623 11.1183 18.6659 11.6011C17.8023 12.0578 17.1381 12.3841 15.9424 12.3841C14.7467 12.3841 14.0825 12.0578 13.2189 11.6011C12.2226 11.1052 11.1332 10.5571 9.29982 10.5571C7.46646 10.5571 6.37708 11.1183 5.38069 11.6011C4.80943 11.9012 4.31787 12.1492 3.70676 12.2797C3.10892 12.4102 2.65723 12.88 2.65723 13.4802V13.5977C2.6573 13.7781 2.69831 13.9561 2.77726 14.119C2.85621 14.2818 2.97112 14.4253 3.11364 14.5391C3.25615 14.6528 3.42268 14.7339 3.60112 14.7765C3.77956 14.8191 3.96541 14.8221 4.14517 14.7852C5.14156 14.5895 5.88553 14.211 6.57635 13.8848C7.43989 13.4672 8.14401 13.1018 9.29982 13.1018C10.4556 13.1018 11.1597 13.428 12.0233 13.8848C13.0197 14.3807 14.1091 14.9287 15.9424 14.9287C17.7758 14.9287 18.8651 14.3676 19.8615 13.8848C20.7251 13.4672 21.4292 13.1018 22.585 13.1018C23.7807 13.1018 24.4449 13.428 25.3085 13.8848C25.9993 14.2241 26.7433 14.6025 27.7396 14.7983C27.9191 14.8327 28.1041 14.8279 28.2815 14.7844C28.4589 14.7409 28.6245 14.6596 28.7664 14.5463C28.9083 14.4331 29.0232 14.2906 29.1029 14.1289C29.1826 13.9672 29.2251 13.7903 29.2276 13.6107V13.4933C29.2276 12.893 28.7759 12.4232 28.1781 12.2927C27.5669 12.1622 27.0754 11.9143 26.5041 11.6141C25.5077 11.1052 24.3785 10.5571 22.585 10.5571Z" fill="url(#paint0_linear_7_1524)"/>
<defs>
<linearGradient id="paint0_linear_7_1524" x1="16.0036" y1="4.77612" x2="16.0036" y2="26.5429" gradientUnits="userSpaceOnUse">
<stop stop-color="#FFBF00"/>
<stop offset="1" stop-color="#F2A50A"/>
</linearGradient>
</defs>
</svg>
