<svg width="11" height="12" viewBox="0 0 11 12" fill="none" xmlns="http://www.w3.org/2000/svg">
<path d="M8.70863 3.70857C8.70863 3.20463 8.29613 2.79213 7.79219 2.79213H6.87575C6.62344 2.79213 6.41719 2.99838 6.41719 3.25C6.41719 3.50232 6.62344 3.70857 6.87575 3.70857H7.79219V4.92338L6.19719 6.91713H4.58363V5.08357C4.58363 4.83125 4.37738 4.625 4.12575 4.625H2.75007C2.50925 4.62491 2.27078 4.67228 2.04829 4.76439C1.82579 4.85651 1.62362 4.99156 1.45334 5.16184C1.28306 5.33212 1.148 5.53429 1.05589 5.75679C0.963779 5.97929 0.916414 6.21775 0.916504 6.45857V7.375C0.916504 7.62732 1.12275 7.83357 1.37507 7.83357H1.83294C1.83294 8.59463 2.44757 9.20857 3.20794 9.20857C3.969 9.20857 4.58294 8.59463 4.58294 7.83357H6.1965C6.47632 7.83357 6.73757 7.705 6.9115 7.48982L8.5065 5.49607C8.63919 5.33107 8.70794 5.12894 8.70794 4.92338L8.70863 3.70857ZM3.20863 8.29213C3.08724 8.29159 2.97099 8.24308 2.88522 8.15718C2.79945 8.07128 2.75112 7.95496 2.75075 7.83357H3.66719C3.66719 8.08588 3.46094 8.29213 3.20863 8.29213Z" fill="#9C9C9C"/>
<path d="M2.75007 3.25H4.12507C4.37738 3.25 4.58363 3.45625 4.58363 3.70856C4.58363 3.96019 4.37738 4.16644 4.12575 4.16644H2.75007C2.62868 4.16608 2.51236 4.11774 2.42646 4.03197C2.34056 3.9462 2.29205 3.82995 2.2915 3.70856C2.2915 3.45625 2.49775 3.25 2.75007 3.25ZM8.70932 6.45788C7.94825 6.45788 7.33432 7.0725 7.33432 7.83288C7.33432 8.59394 7.94825 9.20788 8.70932 9.20788C9.47038 9.20788 10.0843 8.59394 10.0843 7.83288C10.0843 7.0725 9.47038 6.45788 8.70932 6.45788ZM8.70932 8.29144C8.58781 8.29107 8.47138 8.24265 8.38546 8.15673C8.29955 8.07081 8.25112 7.95438 8.25075 7.83288C8.25075 7.58125 8.457 7.375 8.70932 7.375C8.96163 7.375 9.16788 7.58125 9.16788 7.83288C9.16788 8.08519 8.96163 8.29144 8.70932 8.29144Z" fill="#9C9C9C"/>
</svg>
