<svg width="11" height="12" viewBox="0 0 11 12" fill="none" xmlns="http://www.w3.org/2000/svg">
<g clip-path="url(#clip0_7_1198)">
<path d="M0.91657 8.75001C1.1682 8.75001 1.37445 8.95626 1.37445 9.20788V9.66644C1.37513 9.91876 1.58138 10.125 1.83301 10.125H2.29157C2.5432 10.125 2.74945 10.3313 2.74945 10.5829C2.74945 10.8352 2.5432 11.0414 2.29157 11.0414H1.83301C1.07195 11.0414 0.458008 10.4275 0.458008 9.66644V9.20788C0.458008 8.95626 0.664258 8.75001 0.91657 8.75001ZM2.29157 1.87501H1.83301C1.71162 1.87537 1.5953 1.9237 1.5094 2.00947C1.4235 2.09524 1.37499 2.21149 1.37445 2.33288V2.79144C1.37445 3.04376 1.1682 3.24932 0.91657 3.24932C0.664258 3.24932 0.458008 3.04307 0.458008 2.79144V2.33288C0.458008 1.57182 1.07195 0.957881 1.83301 0.957881H2.29157C2.5432 0.957881 2.74945 1.16413 2.74945 1.41644C2.74945 1.66876 2.5432 1.87432 2.29157 1.87432V1.87501ZM9.16657 11.0414H8.7087C8.45638 11.0414 8.25013 10.8352 8.25013 10.5829C8.25013 10.3313 8.45638 10.125 8.7087 10.125H9.16657C9.41888 10.125 9.62513 9.91876 9.62513 9.66644V9.20788C9.62513 8.95626 9.83138 8.75001 10.0837 8.75001C10.3353 8.75001 10.5416 8.95626 10.5416 9.20788V9.66644C10.5416 10.4275 9.92763 11.0414 9.16657 11.0414ZM10.0837 3.25001C9.83138 3.25001 9.62513 3.04376 9.62513 2.79144V2.33288C9.62513 2.08057 9.41888 1.87432 9.16657 1.87432H8.7087C8.45638 1.87432 8.25013 1.66807 8.25013 1.41644C8.25013 1.16413 8.45638 0.957881 8.7087 0.957881H9.16657C9.92763 0.957881 10.5416 1.57182 10.5416 2.33288V2.79144C10.5416 3.04376 10.3353 3.24932 10.0837 3.24932V3.25001ZM8.70732 4.68413V7.31519C8.70732 7.64519 8.53338 7.94769 8.24945 8.10788L5.95732 9.42788C5.81838 9.50941 5.6602 9.55239 5.4991 9.55239C5.33801 9.55239 5.17983 9.50941 5.04088 9.42788L2.74945 8.11338C2.46482 7.94838 2.29088 7.64588 2.29088 7.31588V4.68482C2.29088 4.35482 2.46482 4.05232 2.74945 3.89213L5.04088 2.57213C5.17983 2.4906 5.33801 2.44762 5.4991 2.44762C5.6602 2.44762 5.81838 2.4906 5.95732 2.57213L8.25013 3.89144C8.38986 3.97114 8.50589 4.08654 8.58634 4.22582C8.6668 4.36511 8.70879 4.52328 8.70801 4.68413H8.70732ZM5.04088 3.63019L3.20732 4.68413V6.80644L5.04088 5.73876V3.63019ZM5.49945 6.53144L3.68445 7.59019L5.49945 8.63519L7.31445 7.59019L5.49945 6.53144ZM7.79088 4.68413L5.95732 3.63019V5.73876L7.79088 6.80644V4.68413Z" fill="#9C9C9C"/>
</g>
<defs>
<clipPath id="clip0_7_1198">
<rect width="11" height="11" fill="white" transform="matrix(1 0 0 -1 0 11.5)"/>
</clipPath>
</defs>
</svg>
