<svg width="14" height="18" viewBox="0 0 14 18" fill="none" xmlns="http://www.w3.org/2000/svg">
<path d="M7.00001 0.906799C3.50001 0.906799 0.333008 3.68631 0.333008 7.98559C0.333008 10.7309 2.37501 13.96 6.45001 17.6802C6.604 17.8179 6.80061 17.8936 7.00401 17.8936C7.2074 17.8936 7.40402 17.8179 7.55801 17.6802C11.625 13.96 13.667 10.7309 13.667 7.98559C13.667 3.68631 10.5 0.906799 7.00001 0.906799ZM7.00001 9.53955C6.08301 9.53955 5.33301 8.76257 5.33301 7.81258C5.33301 6.8626 6.08301 6.08562 7.00001 6.08562C7.91701 6.08562 8.66701 6.8626 8.66701 7.81258C8.66701 8.76257 7.91701 9.53955 7.00001 9.53955Z" fill="url(#paint0_linear_7_1808)"/>
<defs>
<linearGradient id="paint0_linear_7_1808" x1="7.03073" y1="0.906799" x2="7.03073" y2="17.8936" gradientUnits="userSpaceOnUse">
<stop stop-color="#FFBF00"/>
<stop offset="1" stop-color="#F2A50A"/>
</linearGradient>
</defs>
</svg>
