<svg width="18" height="14" viewBox="0 0 18 14" fill="none" xmlns="http://www.w3.org/2000/svg">
<path d="M15.667 0.25386H2.33299C1.41699 0.25386 0.674992 1.00386 0.674992 1.92086L0.666992 11.9209C0.666992 12.8379 1.41699 13.5879 2.33299 13.5879H15.667C16.583 13.5879 17.333 12.8379 17.333 11.9209V1.92086C17.333 1.00386 16.583 0.25386 15.667 0.25386ZM15.333 3.79586L9.44199 7.47986C9.30909 7.5617 9.15607 7.60503 8.99999 7.60503C8.84391 7.60503 8.6909 7.5617 8.55799 7.47986L2.66699 3.79586C2.5846 3.74837 2.51261 3.68476 2.45534 3.60884C2.39807 3.53291 2.35668 3.44623 2.33364 3.35396C2.3106 3.26168 2.30639 3.16572 2.32126 3.07178C2.33613 2.97785 2.36977 2.88787 2.42017 2.80722C2.47058 2.72658 2.53671 2.65691 2.61464 2.60238C2.69256 2.54786 2.78066 2.50959 2.8737 2.48986C2.96673 2.47013 3.06279 2.46935 3.15613 2.48757C3.24948 2.50578 3.3382 2.54261 3.41699 2.59586L8.99999 6.08786L14.583 2.59586C14.6618 2.54261 14.7505 2.50578 14.8439 2.48757C14.9372 2.46935 15.0332 2.47013 15.1263 2.48986C15.2193 2.50959 15.3074 2.54786 15.3853 2.60238C15.4633 2.65691 15.5294 2.72658 15.5798 2.80722C15.6302 2.88787 15.6639 2.97785 15.6787 3.07178C15.6936 3.16572 15.6894 3.26168 15.6663 3.35396C15.6433 3.44623 15.6019 3.53291 15.5446 3.60884C15.4874 3.68476 15.4154 3.74837 15.333 3.79586Z" fill="url(#paint0_linear_7_1812)"/>
<defs>
<linearGradient id="paint0_linear_7_1812" x1="9.03839" y1="0.25386" x2="9.03839" y2="13.5879" gradientUnits="userSpaceOnUse">
<stop stop-color="#FFBF00"/>
<stop offset="1" stop-color="#F2A50A"/>
</linearGradient>
</defs>
</svg>
