<svg width="32" height="32" viewBox="0 0 32 32" fill="none" xmlns="http://www.w3.org/2000/svg">
<path d="M15.9418 10.4397C13.0058 10.4397 10.6278 12.7756 10.6278 15.6595C10.6278 18.5435 13.0058 20.8794 15.9418 20.8794C18.8778 20.8794 21.2559 18.5435 21.2559 15.6595C21.2559 12.7756 18.8778 10.4397 15.9418 10.4397ZM27.8188 14.3546C27.5179 11.7083 26.3098 9.24112 24.3929 7.35826C22.4761 5.4754 19.9644 4.28875 17.2703 3.99316V2.6099C17.2703 1.89217 16.6725 1.30493 15.9418 1.30493C15.2111 1.30493 14.6133 1.89217 14.6133 2.6099V3.99316C11.9192 4.28875 9.40756 5.4754 7.49071 7.35826C5.57387 9.24112 4.3658 11.7083 4.06487 14.3546H2.65664C1.92596 14.3546 1.32812 14.9418 1.32812 15.6595C1.32812 16.3773 1.92596 16.9645 2.65664 16.9645H4.06487C4.3658 19.6108 5.57387 22.078 7.49071 23.9608C9.40756 25.8437 11.9192 27.0303 14.6133 27.3259V28.7092C14.6133 29.4269 15.2111 30.0142 15.9418 30.0142C16.6725 30.0142 17.2703 29.4269 17.2703 28.7092V27.3259C19.9644 27.0303 22.4761 25.8437 24.3929 23.9608C26.3098 22.078 27.5179 19.6108 27.8188 16.9645H29.227C29.9577 16.9645 30.5555 16.3773 30.5555 15.6595C30.5555 14.9418 29.9577 14.3546 29.227 14.3546H27.8188ZM15.9418 24.7943C10.8005 24.7943 6.6422 20.7098 6.6422 15.6595C6.6422 10.6093 10.8005 6.52479 15.9418 6.52479C21.0832 6.52479 25.2414 10.6093 25.2414 15.6595C25.2414 20.7098 21.0832 24.7943 15.9418 24.7943Z" fill="url(#paint0_linear_7_1515)"/>
<defs>
<linearGradient id="paint0_linear_7_1515" x1="16.0092" y1="1.30493" x2="16.0092" y2="30.0142" gradientUnits="userSpaceOnUse">
<stop stop-color="#FFBF00"/>
<stop offset="1" stop-color="#F2A50A"/>
</linearGradient>
</defs>
</svg>
