<svg width="32" height="32" viewBox="0 0 32 32" fill="none" xmlns="http://www.w3.org/2000/svg">
<path d="M23.9127 10.4397H22.5842V7.82975C22.5842 4.22805 19.6083 1.30493 15.9416 1.30493C12.2749 1.30493 9.29903 4.22805 9.29903 7.82975V10.4397H7.97051C6.50914 10.4397 5.31348 11.6142 5.31348 13.0496V26.0993C5.31348 27.5347 6.50914 28.7092 7.97051 28.7092H23.9127C25.3741 28.7092 26.5698 27.5347 26.5698 26.0993V13.0496C26.5698 11.6142 25.3741 10.4397 23.9127 10.4397ZM15.9416 22.1844C14.4803 22.1844 13.2846 21.0099 13.2846 19.5744C13.2846 18.139 14.4803 16.9645 15.9416 16.9645C17.403 16.9645 18.5987 18.139 18.5987 19.5744C18.5987 21.0099 17.403 22.1844 15.9416 22.1844ZM11.9561 10.4397V7.82975C11.9561 5.66351 13.7363 3.91486 15.9416 3.91486C18.147 3.91486 19.9272 5.66351 19.9272 7.82975V10.4397H11.9561Z" fill="url(#paint0_linear_7_1517)"/>
<defs>
<linearGradient id="paint0_linear_7_1517" x1="15.9906" y1="1.30493" x2="15.9906" y2="28.7092" gradientUnits="userSpaceOnUse">
<stop stop-color="#FFBF00"/>
<stop offset="1" stop-color="#F2A50A"/>
</linearGradient>
</defs>
</svg>
