<svg width="33" height="32" viewBox="0 0 33 32" fill="none" xmlns="http://www.w3.org/2000/svg">
<path d="M8.12531 10.5049C6.36709 12.2137 5.37712 14.5297 5.37209 16.946C5.36706 19.3624 6.34736 21.6823 8.09845 23.3979C10.0726 18.9611 13.5912 15.255 17.9826 13.0496C14.1922 16.1661 11.6336 20.4651 10.7441 25.2118C14.2358 26.817 18.5332 26.2297 21.4206 23.424C25.436 19.5222 26.5641 8.88674 26.8059 5.96362C26.8143 5.87074 26.8016 5.7772 26.7689 5.68957C26.7361 5.60194 26.6839 5.52237 26.6161 5.45643C26.5482 5.3905 26.4663 5.33982 26.3761 5.30796C26.286 5.27609 26.1897 5.26381 26.0941 5.27199C23.0859 5.50688 12.1408 6.60305 8.12531 10.5049Z" fill="url(#paint0_linear_7_1519)"/>
<defs>
<linearGradient id="paint0_linear_7_1519" x1="16.1396" y1="5.26953" x2="16.1396" y2="26.0919" gradientUnits="userSpaceOnUse">
<stop stop-color="#FFBF00"/>
<stop offset="1" stop-color="#F2A50A"/>
</linearGradient>
</defs>
</svg>
