<svg width="21" height="21" viewBox="0 0 21 21" fill="none" xmlns="http://www.w3.org/2000/svg">
<path d="M18.9824 14.1457L16.1541 13.8224C15.8218 13.7835 15.4849 13.8203 15.1688 13.9302C14.8527 14.0402 14.5656 14.2202 14.3292 14.457L12.2797 16.5051C9.11967 14.8977 6.55111 12.3292 4.94374 9.16911L7.00252 7.109C7.48215 6.63071 7.71595 5.96271 7.63712 5.28268L7.31515 2.47708C7.25187 1.93387 6.99105 1.4329 6.58235 1.06952C6.17365 0.706149 5.6456 0.505749 5.09872 0.506472H3.17354C1.91503 0.506472 0.868941 1.5539 0.946429 2.81108C1.53694 12.3194 9.14012 19.9119 18.6378 20.5024C19.8949 20.5799 20.9424 19.5338 20.9424 18.2753V16.3501C20.9451 15.8056 20.7465 15.2793 20.3847 14.8724C20.0229 14.4655 19.5235 14.2067 18.9824 14.1457Z" fill="url(#paint0_linear_7_1810)"/>
<defs>
<linearGradient id="paint0_linear_7_1810" x1="10.9885" y1="0.50647" x2="10.9885" y2="20.5065" gradientUnits="userSpaceOnUse">
<stop stop-color="#FFBF00"/>
<stop offset="1" stop-color="#F2A50A"/>
</linearGradient>
</defs>
</svg>
