<svg width="32" height="32" viewBox="0 0 32 32" fill="none" xmlns="http://www.w3.org/2000/svg">
<path d="M25.8524 13.0495C25.7214 13.2398 25.6438 13.4606 25.6274 13.6898C25.6111 13.9189 25.6566 14.1482 25.7594 14.3545C26.0889 15.1101 26.3214 15.9035 26.4503 16.7165C26.7922 18.8177 26.4724 20.9713 25.5336 22.889C25.4196 23.0993 25.2491 23.275 25.0407 23.3969C24.8322 23.5188 24.5938 23.5823 24.3512 23.5806H7.54544C7.30149 23.5811 7.0621 23.5156 6.85354 23.3913C6.64497 23.267 6.47528 23.0887 6.36306 22.8759C5.51265 21.1813 5.14632 19.2918 5.30315 17.4089C5.45997 15.5259 6.13405 13.72 7.25354 12.1837C8.37303 10.6474 9.89596 9.43833 11.66 8.68534C13.424 7.93235 15.363 7.66368 17.2702 7.90798C18.2352 8.01939 19.1791 8.26547 20.0734 8.63876C20.2834 8.73973 20.5168 8.78445 20.7501 8.76841C20.9834 8.75237 21.2082 8.67614 21.4019 8.54741C21.6037 8.41684 21.7654 8.23469 21.8696 8.02057C21.9738 7.80644 22.0166 7.56845 21.9934 7.33221C21.9701 7.09597 21.8818 6.87043 21.7377 6.67985C21.5937 6.48928 21.3995 6.3409 21.176 6.25068C18.6096 5.16972 15.7617 4.91059 13.0367 5.51011C10.3118 6.10962 7.84853 7.53729 5.99673 9.59032C4.14492 11.6433 2.99879 14.2173 2.72113 16.9467C2.44346 19.676 3.0484 22.4219 4.44999 24.7942C4.68183 25.1887 5.01473 25.5167 5.4156 25.7456C5.81647 25.9745 6.27136 26.0964 6.73504 26.0992H25.135C25.6032 26.101 26.0636 25.9813 26.4695 25.7521C26.8755 25.523 27.2125 25.1925 27.4466 24.7942C28.4728 23.0475 29.0728 21.0908 29.1995 19.078C29.3263 17.0651 28.9764 15.0508 28.1773 13.1931C28.0761 12.9814 27.9188 12.8003 27.7219 12.6687C27.525 12.5372 27.2958 12.46 27.0581 12.4454C26.8205 12.4307 26.5832 12.479 26.3711 12.5853C26.159 12.6916 25.9798 12.8519 25.8524 13.0495Z" fill="url(#paint0_linear_7_1521)"/>
<path d="M14.0687 16.4294C13.5701 16.9192 13.29 17.5834 13.29 18.276C13.29 18.6189 13.3588 18.9585 13.4924 19.2753C13.626 19.5921 13.8218 19.88 14.0687 20.1225C14.3156 20.365 14.6086 20.5573 14.9312 20.6886C15.2537 20.8198 15.5994 20.8873 15.9486 20.8873C16.6536 20.8873 17.3298 20.6122 17.8284 20.1225L25.3478 9.04333L14.0687 16.4294Z" fill="url(#paint1_linear_7_1521)"/>
<defs>
<linearGradient id="paint0_linear_7_1521" x1="16.0013" y1="5.19458" x2="16.0013" y2="26.0992" gradientUnits="userSpaceOnUse">
<stop stop-color="#FFBF00"/>
<stop offset="1" stop-color="#F2A50A"/>
</linearGradient>
<linearGradient id="paint1_linear_7_1521" x1="19.3467" y1="9.04333" x2="19.3467" y2="20.8873" gradientUnits="userSpaceOnUse">
<stop stop-color="#FFBF00"/>
<stop offset="1" stop-color="#F2A50A"/>
</linearGradient>
</defs>
</svg>
