<svg width="32" height="32" viewBox="0 0 32 32" fill="none" xmlns="http://www.w3.org/2000/svg">
<g clip-path="url(#clip0_17_398)">
<circle cx="16" cy="16" r="16" fill="white"/>
<path d="M22.9457 13H22.1167L20.3983 8.32C20.256 7.9341 19.9975 7.60065 19.6577 7.36462C19.3179 7.12858 18.913 7.00132 18.4978 7H16.8804C16.3245 7 15.8696 7.45 15.8696 8C15.8696 8.55 16.3245 9 16.8804 9H18.4978L19.9737 13H15.1114L14.7475 12H14.8385C15.3945 12 15.8493 11.55 15.8493 11C15.8493 10.45 15.3945 10 14.8385 10H11.8261C11.2701 10 10.8152 10.45 10.8152 11C10.8152 11.55 11.2701 12 11.8261 12H12.5842L14.424 17H13.7467C13.302 14.77 11.4116 13.12 9.0462 13.01C6.21576 12.87 3.73913 15.2 3.73913 18C3.73913 20.8 5.96304 23 8.79348 23C11.2802 23 13.2918 21.31 13.7467 19H17.9924C18.4372 21.23 20.3275 22.88 22.6929 22.99C25.5234 23.12 28 20.8 28 17.99C28 15.2 25.7761 13 22.9457 13ZM9.80435 19H11.6441C11.2196 20.23 10.0267 21.08 8.5913 20.99C7.08511 20.9 5.83163 19.64 5.76087 18.14C5.69011 16.39 7.04467 15 8.79348 15C10.1379 15 11.2398 15.83 11.6441 17H9.80435C9.24837 17 8.79348 17.45 8.79348 18C8.79348 18.55 9.24837 19 9.80435 19ZM17.9924 17H16.5772L15.8392 15H18.9022C18.4574 15.58 18.1339 16.25 17.9924 17ZM22.8243 21C21.2676 20.94 19.9535 19.63 19.913 18.08C19.8928 17.12 20.3073 16.28 20.9745 15.72L21.6012 17.42C21.7933 17.94 22.3695 18.21 22.8951 18.02C23.4208 17.83 23.6937 17.26 23.5016 16.74L22.8648 15.01L22.8749 15C23.2802 14.9863 23.6841 15.0541 24.0622 15.1991C24.4403 15.3441 24.7847 15.5634 25.0748 15.8438C25.3648 16.1242 25.5944 16.4598 25.7497 16.8304C25.905 17.201 25.9827 17.5989 25.9783 18C25.9783 19.72 24.5833 21.06 22.8243 21Z" fill="url(#paint0_linear_17_398)"/>
</g>
<defs>
<linearGradient id="paint0_linear_17_398" x1="15.9255" y1="7" x2="15.9255" y2="23" gradientUnits="userSpaceOnUse">
<stop stop-color="#FFB60D"/>
<stop offset="1" stop-color="#E59317"/>
</linearGradient>
<clipPath id="clip0_17_398">
<rect width="32" height="32" fill="white"/>
</clipPath>
</defs>
</svg>
