<svg width="33" height="32" viewBox="0 0 33 32" fill="none" xmlns="http://www.w3.org/2000/svg">
<g clip-path="url(#clip0_5_636)">
<path d="M32.7686 16.0977C32.7686 7.26166 25.5956 0.0976562 16.7485 0.0976562C7.90148 0.0976562 0.728516 7.26166 0.728516 16.0977C0.728516 24.0843 6.58651 30.703 14.2454 31.903V20.723H10.1777V16.0963H14.2454V12.5737C14.2454 8.56432 16.6377 6.34832 20.297 6.34832C22.0485 6.34832 23.8828 6.66166 23.8828 6.66166V10.599H21.8616C19.8711 10.599 19.2504 11.8323 19.2504 13.0977V16.0977H23.6932L22.983 20.7243H19.2504V31.9043C26.9105 30.703 32.7686 24.083 32.7686 16.0977Z" fill="white"/>
</g>
<defs>
<clipPath id="clip0_5_636">
<rect width="32.0401" height="32" fill="white" transform="translate(0.728516)"/>
</clipPath>
</defs>
</svg>
