<svg width="32" height="34" viewBox="0 0 32 34" fill="none" xmlns="http://www.w3.org/2000/svg">
<g clip-path="url(#clip0_7_1833)">
<path d="M16 0.812988C11.6533 0.812988 11.1107 0.833708 9.404 0.912442C7.7 0.995319 6.54 1.27296 5.52 1.6832C4.468 2.10588 3.57467 2.67359 2.68533 3.59491C1.796 4.51624 1.24667 5.44033 0.84 6.53155C0.444 7.58824 0.174667 8.78997 0.096 10.5553C0.016 12.3234 0 12.8855 0 17.3885C0 21.8916 0.02 22.4537 0.096 24.2218C0.176 25.9857 0.444 27.1888 0.84 28.2455C1.248 29.334 1.796 30.2608 2.68533 31.1822C3.57467 32.1021 4.46667 32.6725 5.52 33.0939C6.54133 33.5028 7.70133 33.7831 9.404 33.8646C11.1107 33.9475 11.6533 33.9641 16 33.9641C20.3467 33.9641 20.8893 33.9433 22.596 33.8646C24.2987 33.7817 25.46 33.5028 26.48 33.0939C27.5307 32.6712 28.4253 32.1021 29.3147 31.1822C30.2027 30.2608 30.7533 29.3381 31.16 28.2455C31.5547 27.1888 31.8253 25.9857 31.904 24.2218C31.984 22.4537 32 21.8916 32 17.3885C32 12.8855 31.98 12.3234 31.904 10.5553C31.824 8.79135 31.5547 7.58686 31.16 6.53155C30.752 5.44171 30.2027 4.51624 29.3147 3.59491C28.4253 2.67359 27.5347 2.1045 26.48 1.6832C25.46 1.27296 24.2987 0.993938 22.596 0.912442C20.8893 0.829564 20.3467 0.812988 16 0.812988ZM16 3.79659C20.2707 3.79659 20.78 3.81868 22.4667 3.89466C24.0267 3.97063 24.8733 4.2386 25.436 4.4679C26.1853 4.76763 26.716 5.12677 27.2787 5.70554C27.8373 6.28568 28.184 6.83682 28.4733 7.6131C28.692 8.19601 28.9533 9.07313 29.024 10.6892C29.1 12.4379 29.1173 12.9629 29.1173 17.3885C29.1173 21.8142 29.0973 22.3405 29.0187 24.0878C28.9373 25.704 28.6773 26.581 28.4573 27.164C28.1587 27.9402 27.8187 28.49 27.2587 29.0729C26.7 29.6516 26.16 30.0108 25.4187 30.3105C24.8587 30.5371 23.9987 30.8078 22.4387 30.881C20.74 30.9598 20.24 30.9777 15.96 30.9777C11.6787 30.9777 11.1787 30.957 9.48133 30.8755C7.92 30.7912 7.06 30.5218 6.5 30.2939C5.74133 29.9846 5.22 29.6324 4.66133 29.0522C4.1 28.4734 3.74133 27.914 3.46133 27.146C3.24133 26.5659 2.98267 25.675 2.90133 24.0588C2.84133 22.3184 2.82 21.781 2.82 17.3678C2.82 12.9532 2.84133 12.4145 2.90133 10.6533C2.98267 9.03722 3.24133 8.14767 3.46133 7.56752C3.74133 6.78018 4.1 6.24148 4.66133 5.65996C5.22 5.08119 5.74133 4.70824 6.5 4.41955C7.06 4.19025 7.90133 3.9209 9.46133 3.83802C11.1613 3.77587 11.6613 3.75515 15.94 3.75515L16 3.79659ZM16 8.87699C11.46 8.87699 7.784 12.6894 7.784 17.3885C7.784 22.0918 11.464 25.9001 16 25.9001C20.54 25.9001 24.216 22.0877 24.216 17.3885C24.216 12.6852 20.536 8.87699 16 8.87699ZM16 22.9137C13.0533 22.9137 10.6667 20.4412 10.6667 17.3885C10.6667 14.3358 13.0533 11.8634 16 11.8634C18.9467 11.8634 21.3333 14.3358 21.3333 17.3885C21.3333 20.4412 18.9467 22.9137 16 22.9137ZM26.4613 8.54133C26.4613 9.63946 25.6 10.5304 24.5413 10.5304C23.4813 10.5304 22.6213 9.63809 22.6213 8.54133C22.6213 7.44458 23.4827 6.55365 24.5413 6.55365C25.5987 6.55227 26.4613 7.44458 26.4613 8.54133Z" fill="url(#paint0_linear_7_1833)"/>
</g>
<defs>
<linearGradient id="paint0_linear_7_1833" x1="16.0737" y1="0.812988" x2="16.0737" y2="33.9641" gradientUnits="userSpaceOnUse">
<stop stop-color="#FFBF00"/>
<stop offset="1" stop-color="#F2A50A"/>
</linearGradient>
<clipPath id="clip0_7_1833">
<rect width="32" height="33.1511" fill="white" transform="translate(0 0.812988)"/>
</clipPath>
</defs>
</svg>
