<svg width="33" height="32" viewBox="0 0 33 32" fill="none" xmlns="http://www.w3.org/2000/svg">
<g clip-path="url(#clip0_5_632)">
<path d="M16.6685 0C12.3163 0 11.773 0.02 10.0642 0.096C8.35808 0.176 7.19662 0.444 6.17535 0.84C5.12203 1.248 4.22758 1.796 3.33713 2.68533C2.44669 3.57467 1.89667 4.46667 1.48949 5.52C1.09299 6.54 0.823323 7.7 0.744558 9.404C0.664458 11.1107 0.648438 11.6533 0.648438 16C0.648438 20.3467 0.668463 20.8893 0.744558 22.596C0.824658 24.2987 1.09299 25.46 1.48949 26.48C1.898 27.5307 2.44669 28.4253 3.33713 29.3147C4.22758 30.2027 5.1207 30.7533 6.17535 31.16C7.19795 31.5547 8.35941 31.8253 10.0642 31.904C11.773 31.984 12.3163 32 16.6685 32C21.0206 32 21.5639 31.98 23.2727 31.904C24.9776 31.824 26.1403 31.5547 27.1616 31.16C28.2136 30.752 29.1093 30.2027 29.9998 29.3147C30.8889 28.4253 31.4402 27.5347 31.8474 26.48C32.2426 25.46 32.5136 24.2987 32.5924 22.596C32.6725 20.8893 32.6885 20.3467 32.6885 16C32.6885 11.6533 32.6685 11.1107 32.5924 9.404C32.5123 7.70133 32.2426 6.53867 31.8474 5.52C31.4389 4.468 30.8889 3.57467 29.9998 2.68533C29.1093 1.796 28.2176 1.24667 27.1616 0.84C26.1403 0.444 24.9776 0.174667 23.2727 0.096C21.5639 0.016 21.0206 0 16.6685 0ZM16.6685 2.88C20.9445 2.88 21.4544 2.90133 23.1433 2.97467C24.7052 3.048 25.5529 3.30667 26.1163 3.528C26.8665 3.81733 27.3979 4.164 27.9613 4.72267C28.5206 5.28267 28.8677 5.81467 29.1574 6.564C29.3763 7.12667 29.638 7.97333 29.7088 9.53333C29.7849 11.2213 29.8022 11.728 29.8022 16C29.8022 20.272 29.7822 20.78 29.7035 22.4667C29.622 24.0267 29.3616 24.8733 29.1414 25.436C28.8424 26.1853 28.502 26.716 27.9413 27.2787C27.3819 27.8373 26.8412 28.184 26.0989 28.4733C25.5382 28.692 24.6772 28.9533 23.1152 29.024C21.4144 29.1 20.9138 29.1173 16.6284 29.1173C12.3418 29.1173 11.8411 29.0973 10.1416 29.0187C8.57835 28.9373 7.71727 28.6773 7.15657 28.4573C6.39695 28.1587 5.87497 27.8187 5.3156 27.2587C4.75357 26.7 4.39445 26.16 4.1141 25.4187C3.89382 24.8587 3.63484 23.9987 3.5534 22.4387C3.49332 20.7587 3.47197 20.24 3.47197 15.98C3.47197 11.7187 3.49332 11.1987 3.5534 9.49867C3.63484 7.93867 3.89382 7.08 4.1141 6.52C4.39445 5.76 4.75357 5.24 5.3156 4.67867C5.87497 4.12 6.39695 3.76 7.15657 3.48133C7.71727 3.26 8.55966 3 10.1216 2.92C11.8237 2.86 12.3243 2.84 16.6084 2.84L16.6685 2.88ZM16.6685 7.784C12.1228 7.784 8.44218 11.464 8.44218 16C8.44218 20.54 12.1268 24.216 16.6685 24.216C21.2141 24.216 24.8947 20.536 24.8947 16C24.8947 11.46 21.2101 7.784 16.6685 7.784ZM16.6685 21.3333C13.7181 21.3333 11.3285 18.9467 11.3285 16C11.3285 13.0533 13.7181 10.6667 16.6685 10.6667C19.6189 10.6667 22.0084 13.0533 22.0084 16C22.0084 18.9467 19.6189 21.3333 16.6685 21.3333ZM27.1429 7.46C27.1429 8.52 26.2805 9.38 25.2205 9.38C24.1591 9.38 23.298 8.51867 23.298 7.46C23.298 6.40133 24.1605 5.54133 25.2205 5.54133C26.2792 5.54 27.1429 6.40133 27.1429 7.46Z" fill="white"/>
</g>
<defs>
<clipPath id="clip0_5_632">
<rect width="32.0401" height="32" fill="white" transform="translate(0.648438)"/>
</clipPath>
</defs>
</svg>
