<svg width="33" height="32" viewBox="0 0 33 32" fill="none" xmlns="http://www.w3.org/2000/svg">
<g clip-path="url(#clip0_5_634)">
<path d="M32.1785 8.2479C31.9975 7.56693 31.6405 6.94541 31.1433 6.44558C30.6462 5.94575 30.0262 5.58515 29.3456 5.3999C26.8478 4.72656 16.8286 4.72656 16.8286 4.72656C16.8286 4.72656 6.80942 4.72656 4.3103 5.3999C3.63 5.58548 3.01041 5.94621 2.51349 6.446C2.01658 6.9458 1.65978 7.56715 1.47876 8.2479C0.808594 10.7599 0.808594 15.9999 0.808594 15.9999C0.808594 15.9999 0.808594 21.2399 1.47876 23.7519C1.65977 24.4329 2.01673 25.0544 2.51392 25.5542C3.01109 26.054 3.63102 26.4146 4.31164 26.5999C6.80942 27.2732 16.8286 27.2732 16.8286 27.2732C16.8286 27.2732 26.8478 27.2732 29.347 26.5999C30.0276 26.4148 30.6476 26.0542 31.1448 25.5544C31.642 25.0545 31.9989 24.4329 32.1798 23.7519C32.8486 21.2399 32.8486 15.9999 32.8486 15.9999C32.8486 15.9999 32.8486 10.7599 32.1785 8.2479ZM13.5512 20.7572V11.2426L21.9257 15.9999L13.5512 20.7572Z" fill="white"/>
</g>
<defs>
<clipPath id="clip0_5_634">
<rect width="32.0401" height="32" fill="white" transform="translate(0.808594)"/>
</clipPath>
</defs>
</svg>
