<svg width="32" height="34" viewBox="0 0 32 34" fill="none" xmlns="http://www.w3.org/2000/svg">
<path d="M31.3307 9.35757C31.1499 8.65211 30.7934 8.00823 30.2968 7.49042C29.8003 6.97261 29.1811 6.59904 28.5013 6.40712C26.0067 5.70956 16 5.70956 16 5.70956C16 5.70956 5.99333 5.70956 3.49733 6.40712C2.81788 6.59938 2.19906 6.97309 1.70277 7.49085C1.20648 8.00863 0.850122 8.65233 0.669333 9.35757C0 11.9599 0 17.3884 0 17.3884C0 17.3884 0 22.8169 0.669333 25.4193C0.850115 26.1248 1.20663 26.7686 1.70319 27.2864C2.19974 27.8042 2.8189 28.1777 3.49867 28.3697C5.99333 29.0672 16 29.0672 16 29.0672C16 29.0672 26.0067 29.0672 28.5027 28.3697C29.1825 28.178 29.8017 27.8044 30.2983 27.2866C30.7949 26.7687 31.1513 26.1248 31.332 25.4193C32 22.8169 32 17.3884 32 17.3884C32 17.3884 32 11.9599 31.3307 9.35757ZM12.7267 22.3168V12.46L21.0907 17.3884L12.7267 22.3168Z" fill="url(#paint0_linear_7_1835)"/>
<defs>
<linearGradient id="paint0_linear_7_1835" x1="16.0737" y1="5.70956" x2="16.0737" y2="29.0672" gradientUnits="userSpaceOnUse">
<stop stop-color="#FFBF00"/>
<stop offset="1" stop-color="#F2A50A"/>
</linearGradient>
</defs>
</svg>
