<svg width="47" height="61" fill="none" xmlns="http://www.w3.org/2000/svg"><path d="M3 44.777c0 1.075-.672 1.946-1.5 1.946S0 45.852 0 44.777C0 43.7.672 42.83 1.5 42.83S3 43.7 3 44.777ZM3 59.053C3 60.128 2.328 61 1.5 61S0 60.128 0 59.053c0-1.075.672-1.947 1.5-1.947s1.5.872 1.5 1.947ZM14 16.223c0 1.076-.672 1.947-1.5 1.947S11 17.3 11 16.223c0-1.075.672-1.946 1.5-1.946s1.5.871 1.5 1.946ZM14 30.5c0 1.075-.672 1.947-1.5 1.947S11 31.575 11 30.5c0-1.075.672-1.947 1.5-1.947s1.5.872 1.5 1.947ZM14 44.777c0 1.075-.672 1.946-1.5 1.946s-1.5-.871-1.5-1.946c0-1.076.672-1.947 1.5-1.947s1.5.871 1.5 1.947ZM14 59.053C14 60.128 13.328 61 12.5 61s-1.5-.872-1.5-1.947c0-1.075.672-1.947 1.5-1.947s1.5.872 1.5 1.947ZM25 16.223c0 1.076-.672 1.947-1.5 1.947S22 17.3 22 16.223c0-1.075.672-1.946 1.5-1.946s1.5.871 1.5 1.946ZM25 30.5c0 1.075-.672 1.947-1.5 1.947S22 31.575 22 30.5c0-1.075.672-1.947 1.5-1.947s1.5.872 1.5 1.947ZM25 44.777c0 1.075-.672 1.946-1.5 1.946s-1.5-.871-1.5-1.946c0-1.076.672-1.947 1.5-1.947s1.5.871 1.5 1.947ZM25 59.053C25 60.128 24.328 61 23.5 61s-1.5-.872-1.5-1.947c0-1.075.672-1.947 1.5-1.947s1.5.872 1.5 1.947ZM36 1.947c0 1.075-.672 1.947-1.5 1.947S33 3.022 33 1.947C33 .872 33.672 0 34.5 0S36 .872 36 1.947ZM36 16.223c0 1.076-.672 1.947-1.5 1.947S33 17.3 33 16.223c0-1.075.672-1.946 1.5-1.946s1.5.871 1.5 1.946ZM36 30.5c0 1.075-.672 1.947-1.5 1.947S33 31.575 33 30.5c0-1.075.672-1.947 1.5-1.947s1.5.872 1.5 1.947ZM36 44.777c0 1.075-.672 1.946-1.5 1.946s-1.5-.871-1.5-1.946c0-1.076.672-1.947 1.5-1.947s1.5.871 1.5 1.947ZM36 59.053C36 60.128 35.328 61 34.5 61s-1.5-.872-1.5-1.947c0-1.075.672-1.947 1.5-1.947s1.5.872 1.5 1.947ZM47 1.947c0 1.075-.672 1.947-1.5 1.947S44 3.022 44 1.947C44 .872 44.672 0 45.5 0S47 .872 47 1.947ZM47 16.223c0 1.076-.672 1.947-1.5 1.947S44 17.3 44 16.223c0-1.075.672-1.946 1.5-1.946s1.5.871 1.5 1.946ZM47 30.5c0 1.075-.672 1.947-1.5 1.947S44 31.575 44 30.5c0-1.075.672-1.947 1.5-1.947s1.5.872 1.5 1.947ZM47 44.777c0 1.075-.672 1.946-1.5 1.946s-1.5-.871-1.5-1.946c0-1.076.672-1.947 1.5-1.947s1.5.871 1.5 1.947ZM47 59.053C47 60.128 46.328 61 45.5 61s-1.5-.872-1.5-1.947c0-1.075.672-1.947 1.5-1.947s1.5.872 1.5 1.947Z" fill="gray" fill-opacity=".3"/></svg>