<svg width="47" height="61" fill="none" xmlns="http://www.w3.org/2000/svg"><path d="M44 44.777c0 1.075.672 1.946 1.5 1.946s1.5-.871 1.5-1.946c0-1.076-.672-1.947-1.5-1.947S44 43.7 44 44.777ZM44 59.053c0 1.075.672 1.947 1.5 1.947s1.5-.872 1.5-1.947c0-1.075-.672-1.947-1.5-1.947s-1.5.872-1.5 1.947ZM33 16.223c0 1.076.672 1.947 1.5 1.947S36 17.3 36 16.223c0-1.075-.672-1.946-1.5-1.946s-1.5.871-1.5 1.946ZM33 30.5c0 1.075.672 1.947 1.5 1.947S36 31.575 36 30.5c0-1.075-.672-1.947-1.5-1.947S33 29.425 33 30.5ZM33 44.777c0 1.075.672 1.946 1.5 1.946s1.5-.871 1.5-1.946c0-1.076-.672-1.947-1.5-1.947S33 43.7 33 44.777ZM33 59.053c0 1.075.672 1.947 1.5 1.947s1.5-.872 1.5-1.947c0-1.075-.672-1.947-1.5-1.947s-1.5.872-1.5 1.947ZM22 16.223c0 1.076.672 1.947 1.5 1.947S25 17.3 25 16.223c0-1.075-.672-1.946-1.5-1.946s-1.5.871-1.5 1.946ZM22 30.5c0 1.075.672 1.947 1.5 1.947S25 31.575 25 30.5c0-1.075-.672-1.947-1.5-1.947S22 29.425 22 30.5ZM22 44.777c0 1.075.672 1.946 1.5 1.946s1.5-.871 1.5-1.946c0-1.076-.672-1.947-1.5-1.947S22 43.7 22 44.777ZM22 59.053c0 1.075.672 1.947 1.5 1.947s1.5-.872 1.5-1.947c0-1.075-.672-1.947-1.5-1.947s-1.5.872-1.5 1.947ZM11 1.947c0 1.075.672 1.947 1.5 1.947S14 3.022 14 1.947C14 .872 13.328 0 12.5 0S11 .872 11 1.947ZM11 16.223c0 1.076.672 1.947 1.5 1.947S14 17.3 14 16.223c0-1.075-.672-1.946-1.5-1.946s-1.5.871-1.5 1.946ZM11 30.5c0 1.075.672 1.947 1.5 1.947S14 31.575 14 30.5c0-1.075-.672-1.947-1.5-1.947S11 29.425 11 30.5ZM11 44.777c0 1.075.672 1.946 1.5 1.946s1.5-.871 1.5-1.946c0-1.076-.672-1.947-1.5-1.947S11 43.7 11 44.777ZM11 59.053c0 1.075.672 1.947 1.5 1.947s1.5-.872 1.5-1.947c0-1.075-.672-1.947-1.5-1.947s-1.5.872-1.5 1.947ZM0 1.947c0 1.075.672 1.947 1.5 1.947S3 3.022 3 1.947C3 .872 2.328 0 1.5 0S0 .872 0 1.947ZM0 16.223C0 17.3.672 18.17 1.5 18.17S3 17.3 3 16.223c0-1.075-.672-1.946-1.5-1.946S0 15.148 0 16.223ZM0 30.5c0 1.075.672 1.947 1.5 1.947S3 31.575 3 30.5c0-1.075-.672-1.947-1.5-1.947S0 29.425 0 30.5ZM0 44.777c0 1.075.672 1.946 1.5 1.946S3 45.852 3 44.777c0-1.076-.672-1.947-1.5-1.947S0 43.7 0 44.777ZM0 59.053C0 60.128.672 61 1.5 61S3 60.128 3 59.053c0-1.075-.672-1.947-1.5-1.947S0 57.978 0 59.053Z" fill="gray" fill-opacity=".3"/></svg>