<svg width="47" height="61" fill="none" xmlns="http://www.w3.org/2000/svg"><path d="M44 16.223c0-1.075.672-1.946 1.5-1.946s1.5.871 1.5 1.946c0 1.076-.672 1.947-1.5 1.947S44 17.3 44 16.223ZM44 1.947C44 .872 44.672 0 45.5 0S47 .872 47 1.947c0 1.075-.672 1.947-1.5 1.947S44 3.022 44 1.947ZM33 44.777c0-1.076.672-1.947 1.5-1.947s1.5.871 1.5 1.947c0 1.075-.672 1.946-1.5 1.946s-1.5-.871-1.5-1.946ZM33 30.5c0-1.075.672-1.947 1.5-1.947s1.5.872 1.5 1.947c0 1.075-.672 1.947-1.5 1.947S33 31.575 33 30.5ZM33 16.223c0-1.075.672-1.946 1.5-1.946s1.5.871 1.5 1.946c0 1.076-.672 1.947-1.5 1.947S33 17.3 33 16.223ZM33 1.947C33 .872 33.672 0 34.5 0S36 .872 36 1.947c0 1.075-.672 1.947-1.5 1.947S33 3.022 33 1.947ZM22 44.777c0-1.076.672-1.947 1.5-1.947s1.5.871 1.5 1.947c0 1.075-.672 1.946-1.5 1.946s-1.5-.871-1.5-1.946ZM22 30.5c0-1.075.672-1.947 1.5-1.947s1.5.872 1.5 1.947c0 1.075-.672 1.947-1.5 1.947S22 31.575 22 30.5ZM22 16.223c0-1.075.672-1.946 1.5-1.946s1.5.871 1.5 1.946c0 1.076-.672 1.947-1.5 1.947S22 17.3 22 16.223ZM22 1.947C22 .872 22.672 0 23.5 0S25 .872 25 1.947c0 1.075-.672 1.947-1.5 1.947S22 3.022 22 1.947ZM11 59.053c0-1.075.672-1.947 1.5-1.947s1.5.872 1.5 1.947C14 60.128 13.328 61 12.5 61s-1.5-.872-1.5-1.947ZM11 44.777c0-1.076.672-1.947 1.5-1.947s1.5.871 1.5 1.947c0 1.075-.672 1.946-1.5 1.946s-1.5-.871-1.5-1.946ZM11 30.5c0-1.075.672-1.947 1.5-1.947s1.5.872 1.5 1.947c0 1.075-.672 1.947-1.5 1.947S11 31.575 11 30.5ZM11 16.223c0-1.075.672-1.946 1.5-1.946s1.5.871 1.5 1.946c0 1.076-.672 1.947-1.5 1.947S11 17.3 11 16.223ZM11 1.947C11 .872 11.672 0 12.5 0S14 .872 14 1.947c0 1.075-.672 1.947-1.5 1.947S11 3.022 11 1.947ZM0 59.053c0-1.075.672-1.947 1.5-1.947s1.5.872 1.5 1.947C3 60.128 2.328 61 1.5 61S0 60.128 0 59.053ZM0 44.777C0 43.7.672 42.83 1.5 42.83S3 43.7 3 44.777c0 1.075-.672 1.946-1.5 1.946S0 45.852 0 44.777ZM0 30.5c0-1.075.672-1.947 1.5-1.947S3 29.425 3 30.5c0 1.075-.672 1.947-1.5 1.947S0 31.575 0 30.5ZM0 16.223c0-1.075.672-1.946 1.5-1.946s1.5.871 1.5 1.946c0 1.076-.672 1.947-1.5 1.947S0 17.3 0 16.223ZM0 1.947C0 .872.672 0 1.5 0S3 .872 3 1.947c0 1.075-.672 1.947-1.5 1.947S0 3.022 0 1.947Z" fill="gray" fill-opacity=".3"/></svg>