<svg width="47" height="61" fill="none" xmlns="http://www.w3.org/2000/svg"><path d="M3 16.223c0-1.075-.672-1.946-1.5-1.946S0 15.148 0 16.223C0 17.3.672 18.17 1.5 18.17S3 17.3 3 16.223ZM3 1.947C3 .872 2.328 0 1.5 0S0 .872 0 1.947c0 1.075.672 1.947 1.5 1.947S3 3.022 3 1.947ZM14 44.777c0-1.076-.672-1.947-1.5-1.947S11 43.7 11 44.777c0 1.075.672 1.946 1.5 1.946s1.5-.871 1.5-1.946ZM14 30.5c0-1.075-.672-1.947-1.5-1.947S11 29.425 11 30.5c0 1.075.672 1.947 1.5 1.947S14 31.575 14 30.5ZM14 16.223c0-1.075-.672-1.946-1.5-1.946s-1.5.871-1.5 1.946c0 1.076.672 1.947 1.5 1.947S14 17.3 14 16.223ZM14 1.947C14 .872 13.328 0 12.5 0S11 .872 11 1.947c0 1.075.672 1.947 1.5 1.947S14 3.022 14 1.947ZM25 44.777c0-1.076-.672-1.947-1.5-1.947S22 43.7 22 44.777c0 1.075.672 1.946 1.5 1.946s1.5-.871 1.5-1.946ZM25 30.5c0-1.075-.672-1.947-1.5-1.947S22 29.425 22 30.5c0 1.075.672 1.947 1.5 1.947S25 31.575 25 30.5ZM25 16.223c0-1.075-.672-1.946-1.5-1.946s-1.5.871-1.5 1.946c0 1.076.672 1.947 1.5 1.947S25 17.3 25 16.223ZM25 1.947C25 .872 24.328 0 23.5 0S22 .872 22 1.947c0 1.075.672 1.947 1.5 1.947S25 3.022 25 1.947ZM36 59.053c0-1.075-.672-1.947-1.5-1.947s-1.5.872-1.5 1.947c0 1.075.672 1.947 1.5 1.947s1.5-.872 1.5-1.947ZM36 44.777c0-1.076-.672-1.947-1.5-1.947S33 43.7 33 44.777c0 1.075.672 1.946 1.5 1.946s1.5-.871 1.5-1.946ZM36 30.5c0-1.075-.672-1.947-1.5-1.947S33 29.425 33 30.5c0 1.075.672 1.947 1.5 1.947S36 31.575 36 30.5ZM36 16.223c0-1.075-.672-1.946-1.5-1.946s-1.5.871-1.5 1.946c0 1.076.672 1.947 1.5 1.947S36 17.3 36 16.223ZM36 1.947C36 .872 35.328 0 34.5 0S33 .872 33 1.947c0 1.075.672 1.947 1.5 1.947S36 3.022 36 1.947ZM47 59.053c0-1.075-.672-1.947-1.5-1.947s-1.5.872-1.5 1.947c0 1.075.672 1.947 1.5 1.947s1.5-.872 1.5-1.947ZM47 44.777c0-1.076-.672-1.947-1.5-1.947S44 43.7 44 44.777c0 1.075.672 1.946 1.5 1.946s1.5-.871 1.5-1.946ZM47 30.5c0-1.075-.672-1.947-1.5-1.947S44 29.425 44 30.5c0 1.075.672 1.947 1.5 1.947S47 31.575 47 30.5ZM47 16.223c0-1.075-.672-1.946-1.5-1.946s-1.5.871-1.5 1.946c0 1.076.672 1.947 1.5 1.947S47 17.3 47 16.223ZM47 1.947C47 .872 46.328 0 45.5 0S44 .872 44 1.947c0 1.075.672 1.947 1.5 1.947S47 3.022 47 1.947Z" fill="gray" fill-opacity=".3"/></svg>