<svg width="134" height="34" viewBox="0 0 134 34" fill="none" xmlns="http://www.w3.org/2000/svg">
<path d="M10.9057 20.3436V24.8943C10.9057 27.1696 9.83369 27.9901 8.12997 27.9901C6.42626 27.9901 5.35521 27.1696 5.35521 24.8943V7.69116C5.35521 5.41584 6.42721 4.55063 8.13093 4.55063C9.83464 4.55063 10.9057 5.41584 10.9057 7.69116V11.1046H15.969V8.00968C15.969 2.91237 13.2421 0 7.98449 0C2.72594 0 0 2.91237 0 8.00968V24.5757C0 29.6731 2.72594 32.5863 7.98449 32.5863C13.2421 32.5863 15.969 29.6731 15.969 24.5757V20.3436H10.9057ZM31.11 0.364158L36.5629 32.2222H31.1588L30.2333 26.4422H23.6615L22.736 32.2222H17.8191L23.272 0.364158H31.11ZM26.8747 6.00726L24.343 22.1188H29.503L26.9723 6.00637H26.8756L26.8747 6.00726ZM55.6961 32.2222H50.2433C49.9514 31.4026 49.7561 30.9015 49.7561 28.3077V23.3016C49.7561 20.3436 48.6851 19.2512 46.2511 19.2512H44.4009V32.2222H39.0457V0.364158H47.1278C52.6773 0.364158 55.0625 2.77637 55.0625 7.69205V10.1946C55.0625 13.4712 53.9427 15.5648 51.5575 16.6117C54.2355 17.7489 55.1113 20.1155 55.1113 23.4385V28.3533C55.1113 29.9012 55.1611 31.0384 55.6961 32.2222ZM46.9814 4.91479H44.4009V14.7005H46.4942C48.4908 14.7005 49.7073 13.8818 49.7073 11.3327V8.19221C49.7073 5.9169 48.8803 4.91479 46.9814 4.91479ZM72.0173 0.364158L77.4702 32.2222H72.0662L71.1416 26.4422H64.5689L63.6443 32.2222H58.7265L64.1793 0.364158H72.0173ZM67.782 6.00726L65.2503 22.1188H70.4113L67.8796 6.00637H67.782V6.00726ZM82.4244 0.364158H77.0203L82.2779 32.2222H90.2624L95.52 0.364158H90.6031L86.5621 26.35H86.4645L82.4244 0.364158ZM108.361 0.364158L113.814 32.2222H108.41L107.485 26.4422H100.913L99.987 32.2222H95.0701L100.523 0.364158H108.361ZM104.126 6.00726L101.594 22.1188H106.755L104.223 6.00637H104.126V6.00726ZM128.498 32.2222H134V0.364158H129.229V19.4328H129.131L123.727 0.364158H117.009V32.2222H121.829V9.14689H121.926L128.498 32.2222Z" fill="#9C9C9C"/>
</svg>
