<svg width="145" height="35" viewBox="0 0 145 35" fill="none" xmlns="http://www.w3.org/2000/svg">
<g clip-path="url(#clip0_5_371)">
<path fill-rule="evenodd" clip-rule="evenodd" d="M21.9637 15.1218H24.5556C27.2343 15.1218 28.6814 18.0762 26.9366 19.9904L24.3991 22.7725C24.6739 24.4225 25.6002 25.9143 26.9929 26.95C28.387 27.9863 30.1448 28.4906 31.9163 28.3626C33.6878 28.2345 35.343 27.4835 36.5524 26.259C37.7609 25.035 38.4337 23.4271 38.4365 21.7566C38.4362 21.466 38.4969 21.1782 38.6151 20.9097C38.7332 20.6411 38.9065 20.3972 39.1251 20.1918C39.3436 19.9864 39.603 19.8236 39.8885 19.7126C40.174 19.6017 40.48 19.5448 40.7889 19.5453C41.4125 19.5455 42.0105 19.7785 42.4517 20.1931C42.8929 20.6076 43.1413 21.1699 43.1423 21.7566C43.1421 24.0773 42.3651 26.339 40.9215 28.2208C39.8407 29.6269 38.4239 30.7745 36.7854 31.5713C35.1469 32.3681 33.3323 32.7918 31.4879 32.8082C29.6435 32.8246 27.8208 32.4333 26.1665 31.6658C24.5122 30.8984 23.0727 29.7761 21.9637 28.3895C20.8548 29.7761 19.4152 30.8984 17.761 31.6658C16.1067 32.4333 14.284 32.8246 12.4395 32.8082C10.5951 32.7918 8.78059 32.3681 7.14205 31.5713C5.50351 30.7745 4.08677 29.6269 3.00592 28.2208C1.56198 26.3391 0.784633 24.0774 0.78418 21.7566C0.783929 21.4659 0.84465 21.178 0.962865 20.9094C1.08108 20.6409 1.25446 20.3969 1.47308 20.1915C1.6917 19.9861 1.95126 19.8232 2.23689 19.7124C2.52251 19.6015 2.82858 19.5447 3.13757 19.5453C3.76115 19.5455 4.35917 19.7785 4.80038 20.1931C5.24158 20.6076 5.48995 21.1699 5.49096 21.7566C5.48832 23.4297 6.15827 25.0419 7.36642 26.2698C8.2685 27.1864 9.42698 27.8453 10.7089 28.1708C11.9909 28.4962 13.3444 28.4752 14.6143 28.1099C15.8841 27.7447 17.0187 27.0502 17.8881 26.1059C18.7574 25.1617 19.3262 24.0061 19.5292 22.7716L16.9898 19.9895C15.246 18.0762 16.6922 15.1227 19.3747 15.1227L21.9637 15.1218Z" fill="#9C9C9C"/>
<path d="M32.9447 7.59781C33.5624 7.59829 34.1742 7.48425 34.7451 7.26223C35.316 7.04021 35.8349 6.71455 36.2719 6.30385C36.709 5.89316 37.0558 5.40547 37.2925 4.86866C37.5292 4.33184 37.6512 3.75642 37.6514 3.17525C37.6512 2.59409 37.5292 2.01866 37.2925 1.48184C37.0558 0.945029 36.709 0.457344 36.2719 0.0466475C35.8349 -0.364049 35.316 -0.68971 34.7451 -0.911731C34.1742 -1.13375 33.5624 -1.24778 32.9447 -1.24731C32.327 -1.24767 31.7153 -1.13355 31.1445 -0.911473C30.5737 -0.689399 30.055 -0.36372 29.618 0.0469651C29.181 0.45765 28.8343 0.945295 28.5976 1.48205C28.361 2.01881 28.2391 2.59416 28.2388 3.17525C28.2391 3.75634 28.361 4.33169 28.5976 4.86845C28.8343 5.40521 29.181 5.89285 29.618 6.30354C30.055 6.71422 30.5737 7.0399 31.1445 7.26198C31.7153 7.48405 32.327 7.59817 32.9447 7.59781ZM10.9819 7.59781C11.5996 7.59817 12.2113 7.48405 12.7821 7.26198C13.3529 7.0399 13.8716 6.71422 14.3086 6.30354C14.7456 5.89285 15.0923 5.40521 15.3289 4.86845C15.5656 4.33169 15.6875 3.75634 15.6877 3.17525C15.6875 2.59416 15.5656 2.01881 15.3289 1.48205C15.0923 0.945295 14.7456 0.45765 14.3086 0.0469651C13.8716 -0.36372 13.3529 -0.689399 12.7821 -0.911473C12.2113 -1.13355 11.5996 -1.24767 10.9819 -1.24731C10.3642 -1.24778 9.75235 -1.13375 9.18145 -0.911731C8.61054 -0.68971 8.09172 -0.364049 7.65464 0.0466475C7.21755 0.457344 6.87075 0.945029 6.63405 1.48184C6.39735 2.01866 6.2754 2.59409 6.27515 3.17525C6.2754 3.75642 6.39735 4.33184 6.63405 4.86866C6.87075 5.40547 7.21755 5.89316 7.65464 6.30385C8.09172 6.71455 8.61054 7.04021 9.18145 7.26223C9.75235 7.48425 10.3642 7.59829 10.9819 7.59781ZM75.7864 -0.1668C76.5114 -0.1668 77.1067 0.0279435 77.5722 0.417431C78.0377 0.806918 78.2705 1.31846 78.2705 1.95205V23.7911C78.2705 24.449 78.0511 24.9722 77.6104 25.3617C77.1716 25.7511 76.5887 25.9459 75.8646 25.9459C75.1396 25.9459 74.5577 25.7512 74.117 25.3626C73.6772 24.9722 73.4569 24.449 73.4569 23.792V22.8785C72.8874 23.8764 72.0594 24.6554 70.9719 25.2154C69.9111 25.7754 68.6948 26.0554 67.323 26.0554C65.6918 26.0554 64.2303 25.6659 62.9368 24.8869C61.668 24.1079 60.6721 23.0122 59.9471 21.5996C59.2478 20.1637 58.8987 18.5205 58.8987 16.67C58.8987 14.8195 59.2478 13.2005 59.9471 11.8122C60.6721 10.4247 61.668 9.3532 62.9368 8.59846C64.2046 7.84371 65.667 7.46589 67.323 7.46589C68.6948 7.46589 69.9111 7.73423 70.9728 8.26999C72.0074 8.78134 72.858 9.56913 73.4178 10.5342V1.87846C73.4178 1.26999 73.6248 0.782687 74.0388 0.417431C74.4795 0.0279435 75.0614 -0.1668 75.7864 -0.1668ZM68.6042 22.5132C70.1572 22.5132 71.3477 22.0142 72.1757 21.0154C73.0295 20.0174 73.4569 18.5923 73.4569 16.7427C73.4569 14.8922 73.0295 13.4796 72.1757 12.5068C71.3477 11.5079 70.1705 11.0081 68.6433 11.0081C67.0902 11.0081 65.8864 11.4954 65.0326 12.47C64.1788 13.4437 63.7514 14.8437 63.7514 16.67C63.7514 18.5205 64.1788 19.9564 65.0326 20.9795C65.8864 22.0026 67.0769 22.5132 68.6042 22.5132ZM91.9196 26.0554C89.9793 26.0554 88.2707 25.6785 86.7959 24.9237C85.3459 24.169 84.2203 23.0858 83.418 21.6732C82.6157 20.2606 82.2141 18.6174 82.2141 16.7427C82.2141 14.8679 82.6148 13.2364 83.418 11.849C84.2203 10.4364 85.3459 9.3532 86.795 8.59846C88.2707 7.84371 89.9793 7.46589 91.9196 7.46589C93.8609 7.46589 95.556 7.84282 97.0051 8.59846C98.458 9.33137 99.637 10.4659 100.383 11.849C101.185 13.2364 101.587 14.8679 101.587 16.7427C101.587 18.6183 101.185 20.2606 100.383 21.6732C99.637 23.0563 98.458 24.1908 97.0051 24.9237C95.556 25.6776 93.8599 26.0554 91.9196 26.0554ZM91.8814 22.5132C93.4602 22.5132 94.6631 22.0259 95.4912 21.0522C96.3201 20.0785 96.7342 18.6417 96.7342 16.7427C96.7342 14.8679 96.3201 13.4437 95.4912 12.47C94.6631 11.4711 93.4726 10.9722 91.9196 10.9722C90.3675 10.9722 89.1627 11.4711 88.3098 12.47C87.4818 13.4437 87.0668 14.8679 87.0668 16.7427C87.0668 18.6417 87.4809 20.0785 88.3098 21.0522C89.1379 22.0259 90.3284 22.5132 91.8814 22.5132ZM121.665 7.53948C122.39 7.53948 122.972 7.73423 123.411 8.12282C123.852 8.5132 124.071 9.0364 124.071 9.69333V24.1196C124.071 26.9196 123.243 29.0376 121.587 30.4753C119.93 31.9111 117.485 32.6291 114.25 32.6291C111.429 32.6291 109.073 32.131 107.185 31.1322C106.227 30.5964 105.748 29.9511 105.748 29.1964C105.748 28.6606 105.878 28.2353 106.136 27.9185C106.421 27.6017 106.783 27.4428 107.223 27.4428C107.457 27.4428 107.741 27.4922 108.078 27.59C108.413 27.7111 108.763 27.8458 109.125 27.9911C109.936 28.3156 110.765 28.5961 111.61 28.8311C112.361 29.0259 113.215 29.1237 114.172 29.1237C117.563 29.1237 119.258 27.5658 119.258 24.4481V22.1111C118.688 23.11 117.86 23.8881 116.774 24.449C115.686 24.9847 114.444 25.2522 113.047 25.2522C111.39 25.2522 109.915 24.8869 108.62 24.1573C107.353 23.4017 106.357 22.3553 105.632 21.0163C104.907 19.6764 104.544 18.131 104.544 16.3774C104.544 14.6247 104.894 13.0785 105.593 11.7395C106.318 10.3754 107.327 9.32897 108.62 8.59846C109.915 7.84371 111.39 7.46589 113.047 7.46589C114.444 7.46589 115.686 7.74589 116.774 8.30589C117.832 8.81582 118.699 9.61894 119.258 10.6069V9.65743C119.258 9.02474 119.478 8.5132 119.918 8.12282C120.358 7.73423 120.941 7.53948 121.665 7.53948ZM114.328 21.71C115.881 21.71 117.084 21.2344 117.938 20.2858C118.818 19.3354 119.258 18.0332 119.258 16.3774C119.258 14.6974 118.818 13.3827 117.938 12.4332C117.084 11.4837 115.881 11.009 114.328 11.009C112.801 11.009 111.597 11.4837 110.717 12.4332C109.838 13.3827 109.397 14.6974 109.397 16.3774C109.397 18.0332 109.838 19.3354 110.717 20.2858C111.597 21.2353 112.801 21.71 114.328 21.71ZM135.969 26.0554C133.148 26.0554 130.871 25.5322 129.137 24.4849C128.309 24.0227 127.895 23.3649 127.895 22.5132C127.895 22.0259 128.037 21.6364 128.321 21.3447C128.606 21.0279 128.956 20.8691 129.37 20.8691C129.809 20.8691 130.418 21.0647 131.195 21.4542C132.023 21.8195 132.773 22.0995 133.446 22.2942C134.145 22.489 135.025 22.5859 136.085 22.5859C137.173 22.5859 138.014 22.4154 138.61 22.0744C139.231 21.7333 139.541 21.2595 139.541 20.6501C139.541 20.2373 139.412 19.9079 139.152 19.6647C138.92 19.4206 138.48 19.2017 137.833 19.0069C137.211 18.7879 136.254 18.5447 134.96 18.2764C132.657 17.8385 131 17.2174 129.991 16.4142C129.007 15.611 128.516 14.5027 128.516 13.091C128.516 12.0195 128.852 11.0574 129.525 10.2049C130.198 9.32897 131.116 8.65948 132.281 8.1964C133.472 7.70999 134.818 7.46589 136.318 7.46589C137.406 7.46589 138.454 7.60051 139.463 7.86794C140.426 8.09251 141.344 8.46225 142.181 8.96281C143.009 9.45012 143.423 10.0954 143.423 10.8995C143.423 11.3859 143.281 11.8005 142.996 12.1406C142.712 12.4574 142.361 12.6163 141.947 12.6163C141.663 12.6163 141.378 12.5669 141.094 12.47C140.753 12.3069 140.417 12.1363 140.084 11.9585C139.334 11.5932 138.687 11.3258 138.143 11.1553C137.599 10.9605 136.927 10.8627 136.125 10.8627C135.167 10.8627 134.404 11.0458 133.834 11.4101C133.29 11.7754 133.019 12.2753 133.019 12.9079C133.019 13.5164 133.304 13.9795 133.873 14.2954C134.443 14.6122 135.543 14.929 137.173 15.2458C138.907 15.5868 140.266 15.9754 141.249 16.4142C142.233 16.8522 142.931 17.4005 143.345 18.0574C143.786 18.7153 144.005 19.5553 144.005 20.5774C144.005 22.2332 143.268 23.5605 141.793 24.5585C140.343 25.5564 138.402 26.0554 135.969 26.0554Z" fill="#9C9C9C"/>
</g>
<defs>
<clipPath id="clip0_5_371">
<rect width="145" height="35" fill="white"/>
</clipPath>
</defs>
</svg>
