<svg width="157" height="36" viewBox="0 0 157 36" fill="none" xmlns="http://www.w3.org/2000/svg">
<g clip-path="url(#clip0_5_374)">
<path d="M2.57327 28.4893C1.79593 28.4893 1.16601 28.2505 0.683524 27.7731C0.227841 27.2956 0 26.6722 0 25.9029V2.62611C0 1.85684 0.214439 1.26 0.643317 0.835579C1.099 0.411158 1.71551 0.198947 2.49285 0.198947H16.6056C18.2407 0.198947 19.0583 0.888632 19.0583 2.268C19.0583 3.62084 18.2407 4.29726 16.6056 4.29726H5.10633V11.9368H15.8015C17.4366 11.9368 18.2541 12.6265 18.2541 14.0059C18.2541 15.3587 17.4366 16.0352 15.8015 16.0352H5.10633V25.9029C5.10633 26.6722 4.87849 27.2956 4.4228 27.7731C3.96712 28.2505 3.35061 28.4893 2.57327 28.4893ZM26.4344 28.4893C25.7107 28.4893 25.1076 28.2903 24.6251 27.8924C24.1694 27.468 23.9415 26.8712 23.9415 26.1019V2.34758C23.9415 1.57832 24.1694 0.994737 24.6251 0.596842C25.1076 0.198947 25.7107 0 26.4344 0C27.1581 0 27.7612 0.198947 28.2437 0.596842C28.7262 0.994737 28.9675 1.57832 28.9675 2.34758V26.1019C28.9675 26.8712 28.7262 27.468 28.2437 27.8924C27.7612 28.2903 27.1581 28.4893 26.4344 28.4893ZM49.7106 22.9187C50.1663 22.9187 50.5282 23.0912 50.7962 23.436C51.0911 23.7808 51.2385 24.2451 51.2385 24.8286C51.2385 25.6509 50.7426 26.3406 49.7508 26.8977C48.8394 27.4017 47.8075 27.8128 46.6548 28.1312C45.5022 28.4229 44.4032 28.5688 43.3578 28.5688C40.1949 28.5688 37.6886 27.6669 35.8391 25.8632C33.9895 24.0594 33.0648 21.5924 33.0648 18.4623C33.0648 16.4728 33.4668 14.7088 34.271 13.1703C35.0751 11.6318 36.2009 10.4381 37.6484 9.58926C39.1227 8.74042 40.7846 8.316 42.6341 8.316C44.4032 8.316 45.9445 8.70063 47.258 9.46989C48.5714 10.2392 49.59 11.3267 50.3137 12.7326C51.0374 14.1385 51.3993 15.7964 51.3993 17.7063C51.3993 18.8469 50.89 19.4173 49.8714 19.4173H38.0103C38.1711 21.2476 38.6938 22.6004 39.5784 23.4758C40.4629 24.3246 41.7496 24.7491 43.4383 24.7491C44.296 24.7491 45.0466 24.6429 45.6899 24.4307C46.36 24.2185 47.1105 23.9267 47.9415 23.5554C48.7456 23.1309 49.3353 22.9187 49.7106 22.9187ZM42.7538 11.8175C41.3867 11.8175 40.2877 12.2419 39.4568 13.0907C38.6526 13.9396 38.1701 15.1598 38.0093 16.7514H47.0962C47.0426 15.1333 46.6405 13.9131 45.8899 13.0907C45.1394 12.2419 44.094 11.8175 42.7538 11.8175ZM72.1654 24.5899C72.6479 25.0674 72.8892 25.6112 72.8892 26.2213C72.8892 26.8048 72.6613 27.3354 72.2056 27.8128C71.75 28.2638 71.2139 28.4893 70.5974 28.4893C69.9272 28.4893 69.3509 28.2107 68.8684 27.6537L63.1992 21.4465L57.53 27.6537C57.0207 28.1842 56.4444 28.4495 55.8011 28.4495C55.2113 28.4495 54.6887 28.224 54.233 27.7731C53.7773 27.3221 53.5494 26.8048 53.5494 26.2213C53.5494 25.6112 53.7907 25.0674 54.2732 24.5899L60.1434 18.2634L54.5948 12.2949C54.1123 11.8175 53.8711 11.2737 53.8711 10.6636C53.8711 10.0535 54.0989 9.53621 54.5546 9.11179C55.0103 8.66084 55.533 8.43537 56.1227 8.43537C56.766 8.43537 57.3423 8.70063 57.8516 9.23116L63.1992 15.0404L68.5468 9.23116C69.0561 8.70063 69.6324 8.43537 70.2757 8.43537C70.8922 8.43537 71.4149 8.66084 71.8438 9.11179C72.2995 9.53621 72.5273 10.0535 72.5273 10.6636C72.5273 11.2737 72.286 11.8175 71.8036 12.2949L66.255 18.2634L72.1654 24.5899ZM94.4097 13.7672C96.0448 14.2181 97.3046 15.0404 98.1891 16.2341C99.1005 17.4278 99.5562 18.8867 99.5562 20.6109C99.5562 22.9983 98.685 24.8684 96.9427 26.2213C95.2272 27.5741 92.855 28.2505 89.826 28.2505H79.4525C78.6752 28.2505 78.0587 28.0383 77.603 27.6139C77.1741 27.1895 76.9597 26.5926 76.9597 25.8234V2.62611C76.9597 1.85684 77.1741 1.26 77.603 0.835579C78.0587 0.411158 78.6752 0.198947 79.4525 0.198947H89.423C92.3715 0.198947 94.6767 0.848842 96.3386 2.14863C98.0274 3.42189 98.8717 5.21242 98.8717 7.52021C98.8717 9.00568 98.4696 10.2922 97.6655 11.3798C96.8881 12.4674 95.8025 13.2632 94.4087 13.7672H94.4097ZM82.0258 12.0164H88.5796C92.1446 12.0164 93.9272 10.7034 93.9272 8.07726C93.9272 6.75095 93.4849 5.76947 92.6003 5.13284C91.7158 4.49621 90.3755 4.17789 88.5796 4.17789H82.0258V12.0164ZM89.2631 24.2716C91.1395 24.2716 92.5065 23.94 93.3643 23.2768C94.222 22.6137 94.6509 21.5792 94.6509 20.1733C94.6509 18.7674 94.2086 17.7196 93.3241 17.0299C92.4663 16.3402 91.1126 15.9954 89.2631 15.9954H82.0258V24.2716H89.2631ZM106.457 28.4893C105.733 28.4893 105.13 28.2903 104.647 27.8924C104.192 27.468 103.964 26.8712 103.964 26.1019V2.34758C103.964 1.57832 104.192 0.994737 104.647 0.596842C105.13 0.198947 105.733 0 106.457 0C107.18 0 107.783 0.198947 108.266 0.596842C108.748 0.994737 108.99 1.57832 108.99 2.34758V26.1019C108.99 26.8712 108.748 27.468 108.266 27.8924C107.783 28.2903 107.18 28.4893 106.457 28.4893ZM123.139 28.5688C121.128 28.5688 119.359 28.1577 117.831 27.3354C116.33 26.5131 115.164 25.3326 114.333 23.7941C113.502 22.2556 113.087 20.4651 113.087 18.4225C113.087 16.38 113.502 14.6027 114.333 13.0907C115.164 11.5522 116.33 10.3718 117.831 9.54947C119.359 8.72716 121.128 8.316 123.139 8.316C125.149 8.316 126.905 8.72716 128.406 9.54947C129.91 10.3481 131.131 11.5841 131.904 13.0907C132.735 14.6027 133.15 16.38 133.15 18.4225C133.15 20.4651 132.735 22.2556 131.904 23.7941C131.131 25.3007 129.91 26.5367 128.406 27.3354C126.905 28.1577 125.149 28.5688 123.139 28.5688ZM123.099 24.7093C124.734 24.7093 125.98 24.1787 126.838 23.1177C127.696 22.0566 128.124 20.4916 128.124 18.4225C128.124 16.38 127.696 14.8282 126.838 13.7672C125.98 12.6796 124.747 12.1358 123.139 12.1358C121.53 12.1358 120.284 12.6796 119.399 13.7672C118.542 14.8282 118.113 16.38 118.113 18.4225C118.113 20.4916 118.542 22.0566 119.399 23.1177C120.257 24.1787 121.49 24.7093 123.099 24.7093ZM153.945 8.39558C154.696 8.39558 155.299 8.60779 155.755 9.03221C156.21 9.45663 156.438 10.0269 156.438 10.7432V26.46C156.438 29.5105 155.58 31.8183 153.865 33.3834C152.149 34.9484 149.616 35.7309 146.266 35.7309C143.344 35.7309 140.905 35.1872 138.948 34.0996C137.956 33.516 137.46 32.8131 137.46 31.9907C137.46 31.4072 137.594 30.9429 137.862 30.5981C138.157 30.2533 138.532 30.0808 138.988 30.0808C139.229 30.0808 139.524 30.1339 139.873 30.24C140.221 30.3726 140.583 30.5185 140.958 30.6777C141.923 31.0756 142.781 31.3806 143.532 31.5928C144.309 31.8051 145.193 31.9112 146.185 31.9112C149.697 31.9112 151.452 30.2135 151.452 26.8181V24.2716C150.863 25.3592 150.005 26.208 148.879 26.8181C147.753 27.4017 146.467 27.6935 145.019 27.6935C143.304 27.6935 141.776 27.2956 140.436 26.4998C139.122 25.6775 138.09 24.5368 137.34 23.0779C136.589 21.6189 136.214 19.9345 136.214 18.0246C136.214 16.1147 136.576 14.4303 137.299 12.9714C138.05 11.4859 139.095 10.3453 140.436 9.54947C141.776 8.72716 143.304 8.316 145.019 8.316C146.467 8.316 147.753 8.62105 148.879 9.23116C149.976 9.78647 150.874 10.6614 151.452 11.7379V10.7034C151.452 10.0137 151.68 9.45663 152.136 9.03221C152.592 8.60779 153.195 8.39558 153.945 8.39558ZM146.346 23.8339C147.954 23.8339 149.201 23.3166 150.085 22.2821C150.997 21.2476 151.452 19.8284 151.452 18.0246C151.452 16.1943 150.997 14.7619 150.085 13.7274C149.201 12.6928 147.954 12.1756 146.346 12.1756C144.765 12.1756 143.518 12.6928 142.607 13.7274C141.695 14.7619 141.24 16.1943 141.24 18.0246C141.24 19.8284 141.695 21.2476 142.607 22.2821C143.518 23.3166 144.765 23.8339 146.346 23.8339Z" fill="#9C9C9C"/>
</g>
<defs>
<clipPath id="clip0_5_374">
<rect width="157" height="36" fill="white"/>
</clipPath>
</defs>
</svg>
