<svg width="133" height="46" viewBox="0 0 133 46" fill="none" xmlns="http://www.w3.org/2000/svg">
<g clip-path="url(#clip0_5_394)">
<path d="M23.8367 8.26357L19.4333 34.2977H13.1067L14.7142 24.8972H7.89963L6.32468 34.2977H0L4.43876 8.26357H10.7299L8.84306 19.2557H15.6576L17.5464 8.26357H23.8367ZM36.8123 34.2977L37.0228 28.6213H31.1861L29.4734 34.2977H22.7975L31.7803 8.26357H43.313L43.4537 34.2977H36.8123ZM35.3799 14.5913L32.6194 23.7757H37.1979L37.5816 14.5922L35.3799 14.5913ZM70.5981 8.26357L66.1938 34.2977H59.8672L55.4648 20.0524L53.0881 34.2986H46.7605L51.1993 8.26357H57.7L62.0345 21.5704L64.305 8.26357H70.5981ZM85.3573 8.26357C88.4096 8.26357 90.5883 9.05937 91.8925 10.65C92.8484 11.8552 93.3249 13.3622 93.3249 15.17C93.3249 15.8214 93.2674 16.5077 93.1517 17.2308L91.7882 25.2946C91.3222 28.0178 90.1797 30.2 88.3627 31.8395C86.5447 33.4789 84.1919 34.2977 81.3013 34.2977H71.1311L75.5708 8.26357H85.3573ZM83.1547 13.905H80.8831L78.4021 28.6563H81.7223C82.8169 28.6563 83.6675 28.3545 84.2732 27.7528C84.9028 27.1254 85.3334 26.1134 85.5649 24.7159L86.5801 18.7856C86.6682 18.3072 86.715 17.8233 86.7198 17.3384C86.7198 15.0476 85.5324 13.905 83.1547 13.905ZM112.057 34.2977H94.5113L98.952 8.26357H116.497L115.519 13.905H104.264L103.461 18.7865H112.757L111.779 24.4261H102.482L101.783 28.6572H113.038L112.057 34.2977ZM132.021 34.2977H116.083L120.523 8.26357H126.814L123.354 28.6572H133L132.021 34.2977ZM70.2996 38.9308H131.1L129.2 44.3423H68.4003L70.2996 38.9308ZM6.65 -1.65771H73.15L71.2497 3.75373H4.74973L6.65 -1.65771Z" fill="#9C9C9C"/>
</g>
<defs>
<clipPath id="clip0_5_394">
<rect width="133" height="46" fill="white"/>
</clipPath>
</defs>
</svg>
