<svg width="199" height="40" viewBox="0 0 199 40" fill="none" xmlns="http://www.w3.org/2000/svg">
<g clip-path="url(#clip0_5_356)">
<mask id="mask0_5_356" style="mask-type:luminance" maskUnits="userSpaceOnUse" x="0" y="0" width="199" height="40">
<path d="M0 0H199V40H0V0Z" fill="white"/>
</mask>
<g mask="url(#mask0_5_356)">
<path fill-rule="evenodd" clip-rule="evenodd" d="M13.3321 35.242C13.205 35.2408 13.0799 35.2099 12.9663 35.1517C12.8527 35.0935 12.7536 35.0096 12.6768 34.9063C12.4585 34.6105 12.3111 34.2667 12.2463 33.9024C12.1425 33.4387 12.0627 32.9698 12.0071 32.4976C11.941 31.8895 11.9071 31.2782 11.9057 30.6663C11.886 29.322 11.8904 27.9774 11.9191 26.6332C11.9363 25.8078 11.9439 25.1639 11.9439 24.6995V9.33171C11.9439 8.57464 11.9487 7.99903 11.9573 7.60391C11.9659 7.20878 11.9956 6.76195 12.0444 6.26342C12.0731 5.89269 12.1362 5.52586 12.2348 5.16781C12.3304 4.89171 12.4577 4.6283 12.6127 4.38147C12.7562 4.12293 12.9648 3.90927 13.2183 3.76293C13.513 3.61269 13.8163 3.48 14.1262 3.36293C14.5257 3.21153 14.9397 3.10361 15.3614 3.04098C15.9108 2.95918 16.4621 2.89022 17.0146 2.83415V1.41464L16.5841 0.975613H1.35101L0.947266 1.41464V2.62634C3.50365 2.78147 4.93301 3.52098 5.23533 4.84391C5.41137 5.96098 5.49556 7.09073 5.48791 8.22147V31.76C5.5302 32.9827 5.47934 34.2068 5.33579 35.4215C5.26595 35.6107 5.16358 35.7844 5.03346 35.9366C4.83864 36.1742 4.63271 36.4021 4.41637 36.6195C4.24497 36.7884 4.08089 36.9648 3.92461 37.1483V38.0507C16.9237 38.0507 24.9698 38.1366 28.0629 38.3093L29.1488 34.5707L28.4676 34.08C23.4448 34.7249 18.3933 35.1122 13.3331 35.241L13.3321 35.242ZM37.4953 24.4654C37.446 24.4795 37.3953 24.488 37.3442 24.4907C37.0926 24.4907 36.9663 24.3971 36.9663 24.2078C36.9672 23.3532 37.0304 22.4995 37.1557 21.6546C37.2973 20.7337 37.5336 19.8302 37.8618 18.961C38.178 18.0796 38.6116 17.2467 39.1505 16.4859C39.7216 15.7118 40.4632 15.0856 41.3155 14.6578C42.1677 14.2301 43.1067 14.0127 44.0566 14.0234C44.7421 13.9846 45.4256 14.1283 46.0402 14.4403C46.6548 14.7523 47.1792 15.2218 47.5621 15.8029C48.3573 17.0047 48.7714 18.4265 48.7484 19.8761C48.745 20.1418 48.6623 20.4002 48.5111 20.6167C48.36 20.8332 48.1478 20.9975 47.9027 21.0878C46.5214 21.6554 45.1111 22.1462 43.6777 22.5581C41.6618 23.163 39.6526 23.7906 37.6503 24.441C37.5979 24.4432 37.546 24.4514 37.4953 24.4654ZM52.4777 32.5093C49.4497 34.3824 46.8349 35.319 44.6345 35.319C43.1437 35.352 41.68 34.9104 40.4469 34.0556C39.2997 33.2706 38.3876 32.1778 37.8111 30.8976C37.2434 29.6138 36.9552 28.2199 36.9663 26.8117C47.9639 23.3229 53.5129 21.5776 53.6134 21.5776C54.0501 21.4864 54.4404 21.2387 54.7133 20.8793C54.9863 20.5198 55.1239 20.0725 55.1011 19.6185C55.131 18.3529 54.84 17.1008 54.2563 15.9834C53.7233 14.9841 52.9343 14.1509 51.9735 13.5727C51.0042 12.9925 49.9538 12.5665 48.8584 12.3093C47.6704 12.035 46.4553 11.9008 45.2372 11.9093C43.052 11.8747 40.885 12.3189 38.8826 13.2117C37.1171 13.9894 35.5571 15.1822 34.3305 16.6927C33.174 18.1532 32.2815 19.8119 31.6947 21.5912C31.0862 23.4221 30.7791 25.343 30.7858 27.2761C30.7858 31.2468 31.8382 34.2205 33.9392 36.1971C35.8392 38.002 38.5219 38.9034 41.9853 38.9034C43.9711 38.8826 45.9257 38.3977 47.6989 37.4859C49.8342 36.4013 51.8797 35.1419 53.8153 33.72L53.2632 32.7171L52.4777 32.5093ZM86.4503 5.3239C85.7744 3.5237 84.4472 2.05642 82.742 1.22439C80.6297 0.318197 78.3481 -0.1041 76.0583 -0.0126796C74.3873 -0.022454 72.7218 0.185406 71.1024 0.605857C69.596 0.996986 68.158 1.62324 66.8392 2.46244C65.5475 3.29283 64.4911 4.45314 63.7748 5.8283C62.9973 7.33246 62.6065 9.01315 62.6392 10.7132C62.6383 11.9301 62.9283 13.1289 63.484 14.2059C64.0148 15.2717 64.7331 16.2291 65.6031 17.0302C66.5388 17.8718 67.5332 18.643 68.5786 19.3376C69.6278 20.0504 70.7143 20.7044 71.8334 21.2966C72.8854 21.848 73.9201 22.433 74.936 23.0507C75.778 23.5366 76.5682 24.1112 77.2944 24.7649C79.16 26.5356 80.0938 28.2195 80.0938 29.8185C80.0903 30.6679 79.9162 31.5075 79.5822 32.2856C79.2482 33.0637 78.7613 33.7637 78.1516 34.3424C77.5464 34.9777 76.8204 35.4803 76.0181 35.8195C75.2158 36.1587 74.3541 36.3274 73.4856 36.3151C72.4702 36.3449 71.4615 36.1373 70.5369 35.7083C69.6122 35.2793 68.7961 34.6402 68.1509 33.84C66.8121 32.2767 66.0811 30.2676 66.0958 28.1922L65.1133 27.8312L60.0943 33.5805C61.2413 35.2733 62.7965 36.6364 64.61 37.5385C66.454 38.461 68.4831 38.9336 70.537 38.919C72.4111 38.9094 74.2731 38.6134 76.0612 38.041C77.8593 37.4889 79.574 36.6862 81.1567 35.6556C82.6613 34.6758 83.939 33.3742 84.9013 31.841C85.8446 30.383 86.3488 28.6754 86.3518 26.9288C86.3593 25.9914 86.1971 25.0607 85.8734 24.1834C85.5739 23.3687 85.1573 22.6039 84.6373 21.9141C84.0251 21.1484 83.3168 20.468 82.5306 19.8907C81.6715 19.2301 80.7744 18.6225 79.8441 18.0712C78.7306 17.4242 77.6039 16.801 76.4649 16.202C75.6707 15.8094 74.8884 15.3923 74.119 14.9512C73.3914 14.5176 72.6833 14.0508 71.997 13.5522C71.2933 13.0603 70.6502 12.4838 70.0816 11.8351C69.5819 11.2298 69.1737 10.5517 68.8704 9.82342C68.5337 9.03918 68.3619 8.19169 68.3662 7.33561C68.3507 6.63546 68.4731 5.93926 68.7261 5.28822C68.9792 4.63717 69.3578 4.04453 69.8395 3.54537C70.3486 3.02649 70.9579 2.62111 71.6287 2.35492C72.2995 2.08874 73.0172 1.96754 73.7363 1.99903C74.6271 1.9598 75.5153 2.122 76.3374 2.47402C77.1595 2.82603 77.895 3.35914 78.4913 4.03513C79.686 5.41396 80.4384 7.13248 80.6477 8.96L81.5308 9.24293L86.4503 5.3239ZM110.979 15.2117C110.528 14.407 109.875 13.7395 109.088 13.2781C108.308 12.8236 107.466 12.4893 106.59 12.2859C105.651 12.0733 104.69 11.9696 103.728 11.9766C101.892 11.9502 100.066 12.2693 98.3425 12.9181C96.8637 13.4657 95.5084 14.3118 94.3577 15.4059C93.2883 16.4623 92.4014 17.6952 91.7343 19.0527C91.0487 20.4183 90.5439 21.8706 90.2332 23.3717C89.9268 24.8899 89.7748 26.4363 89.7797 27.9863C89.774 29.3034 89.9567 30.6146 90.3212 31.8771C90.6752 33.0995 91.2253 34.2537 91.9477 35.2937C92.7094 36.3664 93.7309 37.2192 94.9126 37.7688C96.2692 38.401 97.7474 38.7141 99.238 38.6839C103.963 38.6839 108.402 36.561 112.556 32.3161L112.051 31.5678L111.421 31.4137C108.344 33.8371 105.502 35.0488 102.896 35.0488C101.92 35.0648 100.955 34.8392 100.084 34.3912C99.2938 33.9913 98.6062 33.4091 98.0755 32.6907C97.5487 31.9523 97.1202 31.1459 96.8012 30.2927C96.47 29.4407 96.2292 28.555 96.0827 27.6507C95.9487 26.798 95.8818 25.9356 95.8808 25.0722C95.8865 23.9746 95.9793 22.88 96.1582 21.798C96.3563 20.5932 96.6519 19.4078 97.0413 18.2527C97.3949 17.1238 98.0091 16.098 98.8323 15.2615C99.1946 14.8871 99.6268 14.5905 100.103 14.3891C100.58 14.1877 101.091 14.0856 101.607 14.0888C102.296 14.05 102.982 14.2081 103.588 14.5452C104.194 14.8823 104.696 15.3851 105.037 15.9971C105.817 17.4299 106.2 19.0519 106.147 20.6898L107.03 21.0507L111.797 18.1639C111.758 17.1276 111.477 16.1157 110.979 15.2117ZM120.224 22.882C120.352 21.8693 120.576 20.8722 120.893 19.9044C121.182 18.9629 121.594 18.0663 122.115 17.2361C122.616 16.467 123.286 15.8271 124.071 15.3668C124.917 14.8685 125.881 14.6146 126.858 14.6322C127.918 14.6047 128.963 14.8863 129.872 15.4439C130.716 15.9798 131.393 16.7487 131.826 17.6615C132.282 18.6049 132.613 19.6059 132.809 20.639C133.016 21.7512 133.119 22.8829 133.112 24.0166C133.112 25.0478 133.103 25.9073 133.086 26.5941C133.059 27.4216 133.001 28.2476 132.91 29.0702C132.835 29.88 132.697 30.681 132.494 31.4673C132.296 32.16 132.039 32.8332 131.725 33.479C131.436 34.1183 131.019 34.6889 130.501 35.1541C129.966 35.5995 129.36 35.9483 128.71 36.1854C127.922 36.4731 127.089 36.6129 126.251 36.598C125.329 36.6095 124.426 36.3301 123.665 35.798C122.923 35.2913 122.307 34.6164 121.863 33.8263C121.397 32.976 121.032 32.0716 120.778 31.1327C120.51 30.2087 120.316 29.2642 120.197 28.3083C120.099 27.4827 120.049 26.652 120.046 25.8205C120.045 24.8382 120.105 23.8568 120.224 22.882ZM117.096 36.2117C118.928 37.9132 121.838 38.7639 125.824 38.7639C127.297 38.7737 128.766 38.601 130.2 38.2478C131.548 37.906 132.833 37.3447 134.006 36.5854C135.184 35.827 136.215 34.8521 137.045 33.7102C137.953 32.4155 138.628 30.9662 139.038 29.4302C139.547 27.5676 139.793 25.6407 139.77 23.7073C139.819 22.1507 139.535 20.6018 138.938 19.1682C138.342 17.7345 137.446 16.4504 136.314 15.4049C134.211 13.481 131.159 12.5181 127.158 12.5181C123.156 12.5181 119.86 13.7815 117.27 16.3083C115.999 17.5337 114.996 19.0193 114.326 20.6676C113.657 22.3159 113.336 24.0898 113.386 25.8732C113.386 30.48 114.621 33.9259 117.093 36.2117H117.096ZM156.569 15.7922C157.914 15.7922 158.873 16.0673 159.445 16.6176C159.978 17.281 160.315 18.0868 160.415 18.9395C160.627 19.9444 160.758 20.9668 160.806 21.9941C160.84 22.8966 160.857 24.0615 160.857 25.4878C160.856 27.3399 160.843 29.192 160.82 31.0439C160.811 31.602 160.815 32.2595 160.831 33.0166C160.836 33.5805 160.87 34.1444 160.933 34.7044C160.983 35.0751 161.05 35.479 161.135 35.9161C161.193 36.2829 161.313 36.6351 161.488 36.96C161.639 37.2185 161.824 37.4537 162.041 37.6576C162.797 38.3578 163.793 38.7276 164.814 38.6878C166.076 38.6878 167.522 38.0341 169.153 36.7288C170.514 35.5743 171.811 34.3431 173.037 33.041L172.458 32.1629H171.852C170.866 32.97 169.659 33.4473 168.397 33.5298C168.13 33.5454 167.862 33.5054 167.611 33.4124C167.359 33.3193 167.129 33.175 166.933 32.9883C166.759 32.8479 166.61 32.6784 166.491 32.4868C166.353 32.1496 166.264 31.7932 166.227 31.4293C166.131 30.6901 166.089 29.9446 166.101 29.199C166.101 28.6322 166.131 27.7161 166.189 26.4537C166.236 25.5561 166.266 24.6577 166.278 23.759V22.2117C166.294 20.5444 166.29 19.3893 166.266 18.7434C166.215 17.8623 166.118 16.9846 165.975 16.1141C165.912 15.2935 165.643 14.5031 165.193 13.8195C164.749 13.3283 164.218 12.9263 163.629 12.6341C162.828 12.2391 161.945 12.0486 161.056 12.079C158.097 12.079 154.666 13.3171 150.766 15.7922L150.16 15.56C150.127 14.612 149.825 13.6941 149.29 12.9181C148.794 12.2546 147.94 11.9249 146.73 11.9249C146.005 11.9342 145.285 12.0603 144.598 12.2985C143.8 12.5717 143.037 12.9444 142.327 13.4068C141.562 13.8976 140.898 14.3532 140.334 14.7737C139.771 15.1941 139.119 15.7054 138.38 16.3073L139.313 17.5707C139.484 17.4576 139.657 17.346 139.83 17.2361C140.124 17.0468 140.38 16.8927 140.599 16.7717C140.817 16.6517 141.079 16.5102 141.381 16.3463C141.652 16.1961 141.935 16.0702 142.227 15.9698C142.45 15.8917 142.683 15.8478 142.919 15.841C143.211 15.8341 143.499 15.9093 143.752 16.0605C144.008 16.2332 144.201 16.4868 144.305 16.7824C144.431 17.0946 144.54 17.4117 144.632 17.7356C144.735 18.1717 144.795 18.6166 144.809 19.0644C144.843 19.6498 144.863 20.122 144.87 20.482C144.878 20.842 144.882 21.3834 144.883 22.1063V22.5454C144.883 24.2293 144.756 29.3854 144.505 38.0137L145.135 38.3746L150.811 36.6985C150.642 35.96 150.516 33.6312 150.432 29.7132C150.348 25.8806 150.307 22.0472 150.309 18.2137C153.235 16.5981 155.32 15.7902 156.564 15.7902L156.569 15.7922ZM181.036 24.5824C180.986 24.5974 180.936 24.6066 180.884 24.6098C180.633 24.6098 180.507 24.5151 180.506 24.3268C180.507 23.4712 180.57 22.6185 180.696 21.7737C180.838 20.8527 181.074 19.9493 181.401 19.079C181.718 18.198 182.15 17.3649 182.688 16.6039C183.259 15.8296 184 15.2033 184.853 14.7755C185.705 14.3477 186.644 14.1305 187.594 14.1415C188.279 14.1026 188.963 14.2462 189.578 14.5582C190.192 14.8702 190.717 15.3398 191.099 15.921C191.895 17.1227 192.309 18.5446 192.285 19.9941C192.281 20.2596 192.198 20.5177 192.047 20.7341C191.897 20.9506 191.685 21.1151 191.44 21.2059C190.059 21.7731 188.649 22.2639 187.216 22.6761C185.2 23.2809 183.19 23.9086 181.188 24.559C181.137 24.5619 181.086 24.57 181.037 24.5834L181.036 24.5824ZM196.018 32.6273C192.99 34.5015 190.375 35.438 188.174 35.4371C186.683 35.4699 185.22 35.0286 183.986 34.1746C182.839 33.3894 181.928 32.2966 181.351 31.0166C180.783 29.7323 180.495 28.3377 180.506 26.9288C191.503 23.441 197.052 21.6966 197.154 21.6966C197.59 21.6051 197.981 21.3571 198.253 20.9975C198.526 20.638 198.664 20.1907 198.641 19.7366C198.671 18.4709 198.38 17.2189 197.797 16.1015C197.263 15.1021 196.475 14.2689 195.514 13.6907C194.544 13.1108 193.494 12.6847 192.399 12.4273C191.21 12.1529 189.995 12.0187 188.776 12.0273C186.592 11.993 184.426 12.4371 182.424 13.3298C180.658 14.1074 179.098 15.3002 177.872 16.8107C176.715 18.271 175.822 19.9298 175.236 21.7093C174.627 23.54 174.32 25.461 174.328 27.3941C174.328 31.3649 175.378 34.3376 177.48 36.3151C179.38 38.12 182.062 39.0215 185.526 39.0215C187.512 39.0006 189.467 38.5157 191.24 37.6039C193.375 36.5192 195.421 35.2601 197.356 33.839L196.804 32.8351L196.018 32.6273Z" fill="#9C9C9C"/>
</g>
</g>
<defs>
<clipPath id="clip0_5_356">
<rect width="199" height="40" fill="white"/>
</clipPath>
</defs>
</svg>
