<svg width="142" height="33" viewBox="0 0 142 33" fill="none" xmlns="http://www.w3.org/2000/svg">
<g clip-path="url(#clip0_5_362)">
<path d="M46.6528 32.56V0H38.0406L20.0335 25.124L16.9939 21.472C22.4283 20.68 25.4679 16.104 25.4679 11.22C25.4679 6.556 22.7968 2.64 19.2045 1.144C17.4084 0.396 14.7373 0 11.1911 0H0V32.56H8.33578V22.044H8.42789L16.3031 32.56H25.0995L28.093 27.852H37.9485V32.56H46.6528ZM8.33578 16.368V7.304H11.6517C14.9215 7.304 17.1321 8.888 17.1321 11.704C17.1321 14.696 15.0597 16.368 11.6056 16.368H8.33578ZM37.9485 21.252H32.2378L37.8564 12.232H37.9485V21.252ZM81.5828 32.56V0H73.2471L73.6155 20.592L60.3519 0H52.8451V32.56H61.1809L60.9506 12.672L74.03 32.56H81.5828ZM106.719 32.56V25.256H96.1263V19.668H106.396V12.364H96.1263V7.304H106.719V0H87.7906V32.56H106.719ZM141.319 32.56L129.299 16.236L140.582 0H131.463L121.838 14.652H121.746V0H113.042V32.56H121.746V18.48H121.838L131.141 32.56H141.319Z" fill="#9C9C9C"/>
</g>
<defs>
<clipPath id="clip0_5_362">
<rect width="142" height="33" fill="white"/>
</clipPath>
</defs>
</svg>
