<svg width="191" height="47" viewBox="0 0 191 47" fill="none" xmlns="http://www.w3.org/2000/svg">
<g clip-path="url(#clip0_5_364)">
<path d="M51.9339 40.4767C48.7633 40.4767 46.3328 39.9318 44.6415 38.8422C42.9798 37.7219 42.1499 36.0865 42.1499 33.9369C42.1499 32.8473 42.5128 31.9534 43.2367 31.257C43.9921 30.5309 44.9586 30.1674 46.1361 30.1674C46.8304 30.198 47.3585 30.3784 47.7214 30.7122C48.0843 31.0153 48.2657 31.303 48.2657 31.5754C48.2657 31.6052 48.1139 31.7116 47.8121 31.8929C47.5103 32.0752 47.2391 32.3476 46.9965 32.7101C46.7549 33.0746 46.6336 33.5734 46.6336 34.2094C46.6336 35.6328 47.0576 36.7378 47.9028 37.5253C48.7786 38.282 50.1222 38.66 51.9339 38.66C53.1725 38.66 54.2593 38.4183 55.1962 37.9339C56.1321 37.4495 56.8416 36.8135 57.3249 36.026C57.8377 35.2088 58.0946 34.3609 58.0946 33.4823C58.0946 32.3927 57.7775 31.4546 57.1434 30.6671C56.5275 29.8694 55.7573 29.2051 54.8791 28.7142C53.9718 28.1694 52.7342 27.5478 51.1641 26.8515C49.3525 26.0342 47.8885 25.2928 46.7711 24.6262C45.6483 23.9558 44.6761 23.0589 43.9157 21.9922C43.1316 20.8719 42.7391 19.4945 42.7391 17.8591C42.7391 15.2252 43.6292 13.2569 45.4112 11.9553C47.2238 10.6528 49.5941 10.0024 52.5231 10.0024C54.818 10.0024 56.8111 10.4868 58.5024 11.4556C60.2242 12.4244 61.0847 13.8478 61.0847 15.724C61.0847 16.8146 60.7065 17.7229 59.9521 18.45C59.2272 19.1463 58.276 19.4945 57.0985 19.4945C56.4033 19.4638 55.8752 19.2969 55.5132 18.9948C55.1503 18.6619 54.9689 18.3588 54.9689 18.0864C54.9689 18.0557 55.1656 17.9502 55.5581 17.768C55.9812 17.5867 56.3431 17.3143 56.6449 16.9508C56.9772 16.5872 57.1434 16.0875 57.1434 15.4525C57.1434 14.3322 56.706 13.4536 55.8303 12.8176C54.9841 12.1817 53.8974 11.8642 52.568 11.8642C50.7268 11.8642 49.3219 12.3035 48.3564 13.1812C47.4196 14.0291 46.9516 15.089 46.9516 16.3609C46.9516 17.4198 47.2381 18.3138 47.8121 19.0399C48.3851 19.7362 49.3067 20.4326 50.5749 21.129C51.6747 21.7097 52.7926 22.2551 53.927 22.7644C55.8599 23.642 57.385 24.4449 58.5024 25.1719C59.6528 25.9016 60.6275 26.8789 61.3559 28.0332C62.1409 29.213 62.5344 30.6824 62.5344 32.4377C62.5344 33.9523 62.0511 35.3297 61.0847 36.5718C60.1488 37.7823 58.8643 38.7357 57.2341 39.4321C55.6335 40.1285 53.8668 40.4767 51.9339 40.4767ZM74.8663 40.1141C72.813 40.1141 71.1819 39.4925 69.9738 38.2514C68.7658 37.0102 68.1622 35.3748 68.1622 33.3461V24.9436C68.1622 24.1571 68.1316 23.5816 68.0715 23.2181C68.0419 22.8555 67.8604 22.537 67.5271 22.2646C67.1957 21.9922 66.6371 21.856 65.852 21.856C65.4891 21.856 65.2179 21.8109 65.0365 21.7198C64.855 21.599 64.7653 21.3409 64.7653 20.9477C64.7653 20.7654 64.8254 20.5995 64.9467 20.4489C65.067 20.2667 65.2485 20.1611 65.4901 20.1305C67.3925 19.8571 69.0236 19.4638 70.3816 18.9487C70.8047 18.7981 71.1513 18.707 71.4235 18.6763H71.5591C72.0424 18.6763 72.2849 18.9641 72.2849 19.5396V33.301C72.2849 34.6937 72.7223 35.769 73.5981 36.5258C74.447 37.2427 75.524 37.6294 76.633 37.6154C78.0522 37.6154 79.2593 37.2672 80.2563 36.5709C81.2533 35.8745 81.918 35.1781 82.2494 34.4818V24.9446C82.2494 24.1571 82.2198 23.5826 82.1596 23.2181C82.1291 22.8555 81.9476 22.537 81.6153 22.2646C81.2829 21.9922 80.7243 21.856 79.9393 21.856C79.5764 21.856 79.3051 21.8109 79.1246 21.7198C78.9432 21.599 78.8525 21.3409 78.8525 20.9477C78.8525 20.7654 78.9126 20.5995 79.0339 20.4489C79.1542 20.2667 79.3357 20.1611 79.5773 20.1305C81.4797 19.8571 83.1108 19.4638 84.4698 18.9487C84.8919 18.7981 85.2395 18.707 85.5107 18.6763H85.6473C86.1305 18.6763 86.3721 18.9641 86.3721 19.5396V35.2549C86.3721 37.0418 87.5649 37.9348 89.9505 37.9348C90.4634 37.9348 90.7202 38.2226 90.7202 38.7981C90.7202 39.2211 90.4634 39.4791 89.9505 39.5693L82.6572 40.069C82.4461 40.069 82.3248 39.9932 82.2943 39.8426C82.2656 39.7208 82.2494 39.4945 82.2494 39.1616V36.6169H82.1596C81.4663 37.271 80.7562 37.9068 80.03 38.5238C79.4866 38.9477 78.777 39.3113 77.9003 39.6144C77.0552 39.9472 76.0438 40.1131 74.8663 40.1131V40.1141ZM93.1985 39.7055C93.0929 39.705 92.9889 39.6801 92.8945 39.6327C92.8001 39.5853 92.7178 39.5166 92.6541 39.4321C92.5338 39.2508 92.4727 39.0388 92.4727 38.7971C92.5032 38.4039 92.594 38.1756 92.7448 38.1161C92.8967 38.025 93.1679 37.9789 93.5604 37.9789C94.3454 37.9789 94.9041 37.8427 95.2364 37.5703C95.5688 37.2979 95.7502 36.9795 95.7798 36.6169C95.841 36.2524 95.8706 35.6779 95.8706 34.8904V24.4899C95.8706 23.7034 95.841 23.1279 95.7798 22.7634C95.7502 22.4008 95.5688 22.0824 95.2364 21.8109C94.9041 21.5385 94.3454 21.4014 93.5604 21.4014C93.1975 21.4014 92.9263 21.3563 92.7458 21.2652C92.5644 21.1443 92.4736 20.8873 92.4736 20.493C92.4736 20.3117 92.5338 20.1448 92.6551 19.9943C92.7754 19.812 92.9569 19.7065 93.1985 19.6758C95.161 19.3727 96.7769 18.9794 98.0451 18.495C98.5589 18.3435 98.9056 18.2524 99.087 18.2226H99.2226C99.7058 18.2226 99.9475 18.5104 99.9475 19.0859V21.9011H100.083C101.14 20.8412 102.213 20.0086 103.3 19.4034C104.387 18.7675 105.368 18.45 106.244 18.45C107.241 18.45 108.026 18.8279 108.6 19.5847C109.203 20.3117 109.505 21.1597 109.505 22.1284C109.505 22.9764 109.249 23.7332 108.735 24.3988C108.222 25.0655 107.512 25.3983 106.607 25.3983C106.212 25.4052 105.823 25.3115 105.474 25.1259C105.172 24.9436 105.006 24.793 104.976 24.6722C105.006 24.6118 105.157 24.4295 105.428 24.1264C105.7 23.7936 105.836 23.4157 105.836 22.9917C105.836 22.4459 105.685 22.0076 105.383 21.6747C105.111 21.3409 104.734 21.175 104.251 21.175C103.738 21.175 103.088 21.4321 102.303 21.9471C101.517 22.4315 100.748 23.0521 99.9933 23.8089V34.8904C99.9933 35.6779 100.023 36.2524 100.083 36.6169C100.144 36.9795 100.34 37.2979 100.672 37.5703C101.005 37.8427 101.563 37.9789 102.348 37.9789H102.621C102.862 37.9789 103.043 38.025 103.164 38.1151C103.284 38.2063 103.36 38.4336 103.39 38.7962C103.39 39.0388 103.33 39.2508 103.209 39.4321C103.088 39.6144 102.907 39.7055 102.665 39.7055C101.082 39.619 99.4957 39.5733 97.9095 39.5683C96.5505 39.5683 94.9805 39.6153 93.1985 39.7055ZM163.55 40.1141C161.497 40.1141 159.67 39.6287 158.07 38.66C156.469 37.6615 155.216 36.3589 154.31 34.7542C153.446 33.1664 152.995 31.3858 152.997 29.5765C152.997 27.3061 153.525 25.3379 154.582 23.6727C155.639 21.9769 156.983 20.6897 158.613 19.812C160.244 18.9037 161.89 18.45 163.55 18.45C165.605 18.45 167.432 18.9487 169.032 19.9482C170.602 20.885 171.887 22.2358 172.746 23.854C173.641 25.4147 174.109 27.1848 174.105 28.9856C174.105 31.257 173.562 33.2406 172.475 34.9364C171.418 36.6016 170.074 37.8878 168.443 38.7962C166.813 39.6748 165.182 40.1141 163.55 40.1141ZM163.55 38.4336C165.605 38.4336 167.099 37.555 168.035 35.7987C169.002 34.0434 169.485 31.7721 169.485 28.9866C169.485 26.3824 168.986 24.2636 167.99 22.6272C167.024 20.963 165.544 20.1305 163.55 20.1305C161.468 20.1305 159.958 20.9937 159.021 22.7193C158.085 24.4449 157.617 26.6999 157.617 29.4863C157.617 32.0896 158.1 34.24 159.067 35.9349C160.033 37.601 161.528 38.4336 163.55 38.4336ZM185.519 40.3405C184.039 40.3405 182.771 39.7956 181.714 38.706C180.657 37.6154 180.128 36.0567 180.128 34.0281V20.6753L177.501 20.7664C177.413 20.7671 177.326 20.7469 177.248 20.7074C177.169 20.6679 177.101 20.6102 177.048 20.5391C176.93 20.3652 176.866 20.1591 176.867 19.9482C176.867 19.6758 176.913 19.4494 177.003 19.2672C177.124 19.0552 177.29 18.9344 177.501 18.9037C178.558 18.6926 179.374 18.3588 179.948 17.9052C180.551 17.4198 180.99 16.9057 181.261 16.3609C181.533 15.7854 181.865 14.9221 182.258 13.7711C182.409 13.3778 182.741 13.1812 183.254 13.1812C183.465 13.1812 183.677 13.2416 183.888 13.3634C184.099 13.4536 184.205 13.6051 184.205 13.8171L183.888 18.9948L189.188 18.6763H189.279C189.672 18.6763 189.867 18.9641 189.867 19.5396C189.867 19.8724 189.807 20.1909 189.686 20.493C189.596 20.7664 189.475 20.9026 189.324 20.9026L184.251 20.7664V34.5729C184.251 35.5724 184.447 36.4049 184.839 37.0706C185.262 37.7372 185.941 38.0701 186.878 38.0701C187.814 38.0701 188.645 37.9032 189.369 37.5703C189.762 37.4188 190.003 37.343 190.094 37.343C190.306 37.343 190.472 37.4341 190.592 37.6154C190.714 37.767 190.834 37.9799 190.955 38.2514C190.987 38.3227 191.003 38.4005 191 38.4787C191 38.5995 190.909 38.7357 190.728 38.8873C189.852 39.4628 189.022 39.8417 188.237 40.023C187.482 40.234 186.576 40.3405 185.519 40.3405ZM112.305 39.4321C112.425 39.6144 112.607 39.7045 112.849 39.7045C114.417 39.618 115.988 39.5726 117.56 39.5683C119.583 39.5683 121.47 39.6144 123.222 39.7045C123.321 39.7068 123.42 39.6828 123.507 39.635C123.595 39.5872 123.668 39.5173 123.72 39.4321C123.841 39.2499 123.901 39.0388 123.901 38.7962C123.871 38.4336 123.796 38.2063 123.674 38.1151C123.584 38.025 123.403 37.9789 123.131 37.9789H122.859C121.863 37.9789 121.153 37.9032 120.73 37.7516C120.307 37.601 120.021 37.3277 119.87 36.9344C119.719 36.5104 119.643 35.8294 119.643 34.8913V20.7645H124.445C124.55 20.764 124.654 20.7391 124.748 20.6919C124.843 20.6447 124.925 20.5763 124.989 20.4921C125.139 20.3108 125.215 20.0988 125.215 19.8561C125.184 19.4936 125.094 19.2662 124.943 19.1751C124.822 19.0543 124.626 18.9929 124.354 18.9929H119.643V16.2688C119.643 14.8156 119.704 13.5437 119.824 12.4531C119.937 11.3583 120.293 10.3028 120.866 9.36458C121.44 8.4265 122.331 7.95746 123.539 7.95746C123.677 7.95746 123.812 7.96513 123.942 7.98144C123.925 7.47262 123.958 6.96336 124.041 6.46113C123.979 6.45942 123.918 6.45846 123.856 6.45825C121.198 6.51868 119.13 7.53254 117.65 9.50174C116.201 11.4393 115.476 13.9677 115.476 17.086V18.9938H112.758C112.365 18.9938 112.093 19.0389 111.942 19.13C111.791 19.1905 111.701 19.4331 111.671 19.8561C111.671 20.0988 111.731 20.3108 111.852 20.4921C112.003 20.6743 112.199 20.7654 112.441 20.7654H115.476V34.8904C115.476 35.7086 115.445 36.2985 115.385 36.662C115.355 36.9948 115.174 37.2979 114.842 37.5703C114.509 37.8427 113.951 37.9789 113.166 37.9789C112.773 37.9789 112.501 38.025 112.35 38.1151C112.23 38.1756 112.154 38.4029 112.124 38.7962C112.124 39.0388 112.184 39.2508 112.305 39.4321Z" fill="#9C9C9C"/>
<path fill-rule="evenodd" clip-rule="evenodd" d="M136.519 7.7216C136.519 8.38479 136.388 9.04136 136.135 9.65383C135.881 10.2663 135.51 10.8227 135.043 11.2912C134.576 11.7597 134.021 12.1311 133.411 12.3843C132.801 12.6375 132.147 12.7675 131.486 12.7669C130.153 12.7679 128.874 12.237 127.93 11.2909C126.986 10.3448 126.455 9.06089 126.453 7.7216C126.454 7.05829 126.585 6.40157 126.838 5.78894C127.091 5.17631 127.462 4.61976 127.929 4.15109C128.396 3.68241 128.951 3.31077 129.561 3.0574C130.172 2.80402 130.826 2.67387 131.486 2.67438C132.147 2.67375 132.801 2.80381 133.411 3.05714C134.022 3.31047 134.576 3.6821 135.044 4.1508C135.511 4.61951 135.882 5.1761 136.135 5.78879C136.388 6.40147 136.519 7.05825 136.519 7.7216ZM131.486 10.2443C131.816 10.2446 132.143 10.1797 132.449 10.0531C132.754 9.92651 133.031 9.74078 133.265 9.50652C133.499 9.27226 133.684 8.99405 133.811 8.68779C133.937 8.38153 134.002 8.05321 134.003 7.7216C134.003 7.38991 133.937 7.06149 133.811 6.75512C133.684 6.44875 133.499 6.17043 133.265 5.93606C133.031 5.7017 132.754 5.51589 132.449 5.38924C132.144 5.2626 131.817 5.19761 131.486 5.19799C130.82 5.19774 130.18 5.46328 129.708 5.93629C129.236 6.40929 128.971 7.05107 128.97 7.72064C128.971 8.39038 129.236 9.03241 129.708 9.50562C130.18 9.97883 130.819 10.2445 131.486 10.2443ZM129.28 14.9625V39.297C129.28 39.5684 129.357 39.7804 129.508 39.9319C129.658 40.1142 129.869 40.2044 130.142 40.2044C130.413 40.2044 130.639 40.0835 130.821 39.8418C131.002 39.6298 131.168 39.3114 131.319 38.8874C131.47 38.4634 131.606 38.1306 131.727 37.8879H131.953C133.916 39.3718 136.241 40.1132 138.929 40.1132C140.741 40.1132 142.447 39.6288 144.047 38.6601C145.648 37.6913 146.916 36.3743 147.853 34.7082C148.819 33.0134 149.302 31.1516 149.302 29.1229C149.302 27.0635 148.88 25.2325 148.034 23.6268C147.219 21.9923 146.086 20.7205 144.637 19.8121C143.187 18.9038 141.571 18.4501 139.79 18.4501C138.702 18.4501 137.6 18.6764 136.483 19.1311C135.396 19.555 134.414 20.2054 133.539 21.084H133.403V15.045C132.047 15.3985 130.621 15.3699 129.28 14.9625ZM142.961 36.0712C141.843 37.7373 140.363 38.5699 138.522 38.5699C137.555 38.5699 136.695 38.3579 135.939 37.934C135.215 37.51 134.625 37.0103 134.173 36.4348C133.75 35.8295 133.494 35.2837 133.403 34.8003V22.8105C134.701 21.4168 136.301 20.7205 138.205 20.7205C140.349 20.7205 141.964 21.5684 143.051 23.2642C144.138 24.9294 144.682 26.9427 144.682 29.3042C144.682 32.1204 144.109 34.3764 142.961 36.0712ZM12.1285 -1.38872C12.4488 -1.61799 12.8324 -1.74121 13.2258 -1.74121C13.6191 -1.74121 14.0027 -1.61799 14.3231 -1.38872C22.4979 4.46613 26.2033 11.4845 26.4372 21.5549C26.5452 26.3633 26.0839 30.766 24.6791 34.5692C23.237 38.3752 20.6748 41.8906 16.9025 44.8602C16.6676 45.0435 16.393 45.1686 16.101 45.2253C15.8089 45.2819 15.5077 45.2686 15.2217 45.1864C14.0662 44.8535 13.8694 43.48 13.2258 42.6244C12.5821 43.48 12.3873 44.8526 11.2298 45.1854C10.944 45.2675 10.643 45.2807 10.3511 45.2241C10.0592 45.1674 9.78475 45.0424 9.54998 44.8593C5.77773 41.8906 3.21451 38.3752 1.77342 34.5692C0.369567 30.766 -0.0926524 26.3633 0.0152626 21.5549C0.248283 11.4845 3.95368 4.46517 12.1285 -1.38872ZM16.3553 40.5228C18.7161 38.3455 20.139 35.9715 21.1437 33.2407C22.4091 29.9027 22.7739 26.2137 22.664 21.6432C22.4826 13.7904 20.649 8.68079 15.0976 3.93666V17.8141C17.2683 18.3743 18.2424 20.5094 18.2424 22.8594C18.2424 25.2114 17.2683 27.3465 15.0976 27.9067V39.2605C15.0976 39.2605 16.1061 40.1938 16.3553 40.5228ZM10.0638 40.5228C7.70301 38.3455 6.31349 35.9715 5.30787 33.2407C4.04345 29.9027 3.67864 26.2137 3.78942 21.6432C3.97087 13.8067 5.79397 8.67503 11.3225 3.93666V17.8141C9.15175 18.3743 8.17669 20.5094 8.17669 22.8594C8.17669 25.2114 9.15079 27.3465 11.3225 27.9067V39.2605C11.3225 39.2605 10.3044 40.2053 10.0638 40.5228ZM13.2095 20.3368C12.5428 20.3363 11.9032 20.6017 11.4313 21.0748C10.9594 21.5479 10.6939 22.1898 10.6931 22.8594C10.6931 24.2541 11.82 25.3831 13.2095 25.3831C13.8763 25.3836 14.5159 25.1181 14.9878 24.645C15.4597 24.172 15.7252 23.53 15.726 22.8604C15.726 21.4667 14.5991 20.3368 13.2095 20.3368Z" fill="#9C9C9C"/>
</g>
<defs>
<clipPath id="clip0_5_364">
<rect width="191" height="47" fill="white"/>
</clipPath>
</defs>
</svg>
