<svg width="187" height="32" viewBox="0 0 187 32" fill="none" xmlns="http://www.w3.org/2000/svg">
<g clip-path="url(#clip0_5_367)">
<path d="M20.6501 31.0164C19.5307 31.0461 18.4216 30.7972 17.4253 30.2926C16.4344 29.7917 15.5892 29.0499 14.9695 28.1374C13.0183 29.9053 10.4904 30.9265 7.84255 31.0164C3.08455 31.0164 0.505663 27.7562 1.37674 23.0823C2.03887 19.5679 5.0013 16.0461 5.82944 13.2188C4.22658 12.2701 1.8471 11.6094 0.731781 13.5482L0 13.1162C0.583898 10.991 1.99498 9.57735 4.03386 9.57735C6.07273 9.57735 7.58018 10.7538 9.52364 9.67053H11.074C10.2468 13.9039 8.15549 17.2903 7.04017 23.2178C6.36086 26.8508 7.62407 28.5016 9.7593 28.5016C11.3366 28.3102 12.7876 27.5535 13.8361 26.3755C12.9846 24.3083 12.5553 22.0956 12.5729 19.8644C12.5729 14.7162 15.0039 9.28935 19.0816 9.28935C21.173 9.28935 22.7234 10.703 22.7234 14.0564C22.7234 17.4089 20.633 22.5995 17.9663 25.8588C18.1104 26.6352 18.5292 27.3383 19.1494 27.8475C19.7695 28.3557 20.5528 28.6381 21.3648 28.6456C25.2507 28.6456 27.9689 22.9797 27.9689 17.7392C27.9689 12.4988 25.6343 12.735 25.8346 10.9656C25.8527 10.7445 25.9148 10.529 26.0175 10.3317C26.1201 10.1343 26.2613 9.95888 26.4328 9.81547C26.7801 9.5237 27.2324 9.37782 27.6903 9.40794C28.902 9.40794 30.4953 10.8978 30.4953 16.9439C30.4953 24.6484 26.2792 31.0164 20.6501 31.0164ZM19.7705 11.9482C18.5588 11.9482 17.391 16.2917 17.2431 20.7792C17.1866 21.7388 17.2041 22.7013 17.2956 23.6583C19.1228 20.7229 20.2379 17.4107 20.5538 13.9802C20.5452 12.4555 20.258 11.9472 19.7695 11.9472L19.7705 11.9482ZM38.4772 30.8216C37.969 30.8726 37.4557 30.8145 36.9726 30.6512C36.4912 30.489 36.0517 30.2249 35.6846 29.8776C35.3198 29.5322 35.037 29.1115 34.8564 28.6456C34.6762 28.1817 34.6032 27.6839 34.6427 27.1886C34.6427 25.1143 37.4143 14.7755 37.4143 13.0738C37.4143 12.2701 37.2225 11.7957 36.4908 11.7957C35.6743 11.925 34.9139 12.2868 34.3031 12.8366V11.3722C35.5715 10.2371 37.2089 9.58562 38.9208 9.535C39.4321 9.49014 39.9472 9.55434 40.4311 9.72323C40.9139 9.89265 41.3528 10.1609 41.7182 10.5119C42.0826 10.8621 42.365 11.2856 42.5444 11.7543C42.7228 12.2211 42.7953 12.7209 42.7543 13.2178C42.7543 15.2922 39.9846 25.5886 39.9846 27.2818C39.9846 28.0865 40.1754 28.5609 40.9082 28.5609C41.7136 28.4288 42.4686 28.0866 43.0949 27.5698V28.9835C41.8313 30.1263 40.1909 30.7792 38.4772 30.8216ZM41.8746 0.940176C42.2544 0.928881 42.6322 0.996646 42.9823 1.14159C43.3315 1.28653 43.6454 1.503 43.8992 1.77688C44.154 2.04868 44.3445 2.37283 44.457 2.72599C44.5695 3.07915 44.6012 3.45253 44.5499 3.81923C44.4562 4.6022 44.0759 5.32447 43.4804 5.85029C42.8798 6.38093 42.1064 6.68177 41.3003 6.69829C40.921 6.71014 40.5436 6.64145 40.1936 6.49688C39.8446 6.35309 39.5315 6.13634 39.2757 5.86159C39.0209 5.58979 38.8304 5.26564 38.7179 4.91248C38.6054 4.55932 38.5737 4.18594 38.625 3.81923C38.7188 3.03629 39.0991 2.31406 39.6946 1.78818C40.2953 1.25795 41.0687 0.956525 41.8746 0.940176ZM52.6615 26.3849C52.4182 27.663 52.5661 28.5524 53.4896 28.5524C54.298 28.4296 55.0554 28.0864 55.6764 27.5614L55.7632 28.9835C54.4949 30.1189 52.8574 30.7707 51.1455 30.8216C48.1306 30.8216 46.9637 28.6964 47.4083 26.0545L50.3707 9.67053C51.3554 4.20041 51.0148 3.48041 47.9999 3.48041L48.1916 2.15994L57.2792 0.990999L52.6615 26.3849ZM78.2175 26.3416C77.9733 27.6206 78.0687 28.5609 79.0447 28.5609C79.8549 28.4116 80.61 28.0519 81.2324 27.519V28.9835C79.9722 30.1317 78.3298 30.7855 76.6147 30.8216C75.7471 30.8836 74.887 30.6268 74.1999 30.1006C73.5182 29.5797 73.0609 28.8241 72.9195 27.9849C72.1882 28.9247 71.2495 29.6878 70.1746 30.2164C69.0943 30.7485 67.9063 31.0336 66.6989 31.0503C60.9219 31.0503 58.4909 26.0969 59.6063 20.1439C60.7216 14.1919 65.9223 9.3317 71.8042 9.3317C73.1947 9.30297 74.5702 9.62018 75.8037 10.2541L75.9516 9.50112C77.1022 3.67523 76.5708 3.48041 73.5559 3.48041L73.7038 2.15994L82.8343 0.990999L78.2166 26.3425L78.2175 26.3416ZM71.9521 11.4654C68.5975 11.4654 66.3678 15.3345 65.4872 20.1016C64.5637 25.1058 65.1476 28.5694 68.3018 28.5694C70.436 28.5694 72.867 26.0282 73.5988 22.1505L75.3944 12.3294C74.3562 11.7181 73.1602 11.4179 71.9521 11.4654ZM93.5697 31.0578C86.8167 31.0578 84.9696 26.3331 85.7977 21.8032L88.0016 9.67053C89.0215 4.19288 88.6819 3.43806 85.667 3.43806L85.8578 2.11759L94.9722 0.990999L93.1251 11.279C94.5503 10.078 96.349 9.39385 98.2227 9.34017C104.104 9.34017 106.866 14.2004 105.803 20.1524C104.74 26.1054 99.3294 31.0578 93.5697 31.0578ZM96.7238 11.5839C95.7443 11.6028 94.7952 11.9233 94.0095 12.5006C93.2296 13.0734 92.6546 13.876 92.3675 14.7924L91.0079 22.4131C90.1798 26.943 91.8361 28.7886 93.9274 28.7886C96.9853 28.7886 98.8848 25.487 99.9038 20.0592C100.81 15.199 99.983 11.6094 96.7153 11.6094L96.7238 11.5839ZM115.013 22.8959C115.013 26.5289 116.807 28.4677 120.24 28.4677C121.983 28.4677 124.518 27.2912 126.122 25.7326L126.801 27.2395C125.646 28.4282 124.262 29.3778 122.73 30.0329C121.192 30.6906 119.538 31.0418 117.862 31.0663C112.765 31.0663 109.314 27.3835 109.314 22.3792C109.314 14.9703 115.631 9.34865 121.705 9.34865C125.399 9.34865 127.481 11.3298 127.481 13.6414C127.438 17.231 123.935 21.2621 115.013 22.8959ZM121.277 11.5162C118.506 11.5162 115.841 15.4362 115.108 21.0503C120.693 19.7289 123.072 16.0461 123.124 13.6837C123.116 12.3632 122.479 11.5162 121.269 11.5162H121.277ZM147.304 30.8216C146.436 30.8835 145.576 30.6268 144.889 30.1006C144.207 29.5796 143.75 28.8239 143.609 27.9849C142.905 28.9242 141.988 29.6889 140.932 30.2183C139.871 30.751 138.7 31.0354 137.51 31.0494C131.829 31.0494 129.398 26.0969 130.539 20.1439C131.68 14.1919 136.795 9.33923 142.694 9.33923C143.944 9.333 145.183 9.57531 146.336 10.0517H151.877L148.906 26.3416C148.662 27.6206 148.759 28.5609 149.735 28.5609C150.544 28.4113 151.299 28.0517 151.921 27.519V28.9835C150.661 30.1316 149.019 30.7854 147.304 30.8216ZM142.834 11.4654C139.575 11.4654 137.292 15.3345 136.42 20.1016C135.497 25.1058 136.133 28.5694 139.035 28.5694C141.265 28.5694 143.652 25.9275 144.333 22.1505L146.127 12.3294C145.147 11.7181 144.001 11.4166 142.842 11.4654H142.834ZM168.877 14.911C167.562 14.911 167.221 13.9209 166.838 12.879C166.708 12.3523 166.394 11.8875 165.952 11.5651C165.506 11.24 164.961 11.0762 164.407 11.1011C163.688 11.0636 162.98 11.2895 162.42 11.7355C161.864 12.177 161.497 12.8092 161.392 13.5058C161.245 14.7849 162.22 15.8682 164.067 17.4258L166.542 19.407C167.461 20.0826 168.175 20.9941 168.606 22.0423C169.035 23.087 169.162 24.2258 168.973 25.3345C168.345 28.8734 165.331 31.0494 161.296 31.0494C156.434 31.0494 153.332 28.2635 153.672 26.3755C153.751 25.8795 154.009 25.4249 154.4 25.0974C154.791 24.7679 155.29 24.5854 155.807 24.5806C157.07 24.5806 157.549 25.5209 157.942 26.7482C158.193 27.4541 158.677 28.0583 159.318 28.4686C159.962 28.8793 160.723 29.072 161.488 29.0174C162.243 29.0527 162.985 28.8121 163.572 28.3416C164.153 27.8751 164.535 27.2098 164.642 26.4781C164.834 24.7839 163.771 23.743 161.776 21.9896L159.345 19.9152C158.49 19.2815 157.823 18.4346 157.41 17.4616C157 16.4934 156.862 15.4343 157.009 14.3952C157.445 12.1261 159.624 9.31476 164.633 9.31476C168.519 9.31476 170.95 11.4399 170.733 13.1416C170.709 13.6109 170.504 14.0535 170.16 14.3792C169.817 14.7068 169.358 14.8969 168.877 14.911ZM186.66 11.9482H181.946L179.664 24.4959C179.176 27.0955 179.568 28.2729 181.023 28.2729C181.798 28.2729 183.018 27.8494 184.761 26.1054L184.856 27.9425C184.065 28.8533 183.084 29.5852 181.98 30.0884C180.871 30.5945 179.665 30.8615 178.444 30.8715C175.142 30.8715 173.486 28.6032 174.271 24.4028L176.553 11.9482H172.867L173.155 10.0094H176.875L177.851 4.39523H183.289L182.269 10.0084H186.983L186.66 11.9482Z" fill="#9C9C9C"/>
</g>
<defs>
<clipPath id="clip0_5_367">
<rect width="187" height="32" fill="white"/>
</clipPath>
</defs>
</svg>
